<?xml version="1.0" standalone="no"?>
<!DOCTYPE svg PUBLIC "-//W3C//DTD SVG 1.1//EN" "http://www.w3.org/Graphics/SVG/1.1/DTD/svg11.dtd" >
<svg xmlns="http://www.w3.org/2000/svg">
<metadata>Generated by IcoMoon</metadata>
<defs>
<font id="icomoon" horiz-adv-x="1024">
<font-face units-per-em="1024" ascent="960" descent="-64" />
<missing-glyph horiz-adv-x="1024" />
<glyph unicode="&#x20;" horiz-adv-x="512" d="" />
<glyph unicode="&#xe900;" glyph-name="accept" d="M873.984 85.952c-199.936-199.936-524.096-199.936-724.032 0s-199.936 524.096 0 724.096c199.936 199.936 524.096 199.936 724.032 0 199.936-200 199.936-524.16 0-724.096zM783.488 719.488c-149.952 149.952-393.088 149.952-543.040 0s-149.952-393.088 0-543.040c149.952-149.952 393.088-149.952 543.040 0s149.952 393.088 0 543.040zM749.248 530.688l-256-256c-11.584-11.584-27.584-18.688-45.248-18.688s-33.664 7.168-45.248 18.752v0l-128 128c-11.648 11.584-18.752 27.52-18.752 45.248 0 35.328 28.672 64 64 64 17.664 0 33.664-7.168 45.248-18.688v0l82.752-82.816 210.752 210.688c11.584 11.648 27.584 18.816 45.248 18.816 35.328 0 64-28.672 64-64 0-17.664-7.168-33.728-18.752-45.312v0z" />
<glyph unicode="&#xe901;" glyph-name="attach" horiz-adv-x="896" d="M448-64c-247.424 0-448 200.576-448 448v0 256c0 176.768 143.232 320 320 320 176.704 0 320-143.232 320-320v-256c0-105.984-85.952-192-192-192s-192 85.952-192 192v256c0 35.328 28.672 64 64 64s64-28.672 64-64v-256c0-35.328 28.672-64 64-64s64 28.672 64 64v256c0 106.048-85.952 192-192 192s-192-85.952-192-192v0-256c0-176.704 143.232-320 320-320 176.704 0 320 143.232 320 320v0 384c0 35.328 28.672 64 64 64s64-28.672 64-64v-384c0-247.424-200.576-448-448-448z" />
<glyph unicode="&#xe902;" glyph-name="attention" d="M576 384c0-35.328-28.672-64-64-64-35.392 0-64 28.672-64 64l-59.392 415.744c-2.688 10.368-4.608 21.056-4.608 32.256 0 70.656 57.344 128 128 128s128-57.344 128-128c0-11.2-1.856-21.888-4.608-32.256l-59.392-415.744zM512 192c70.656 0 128-57.344 128-128 0-70.72-57.344-128-128-128s-128 57.28-128 128c0 70.656 57.344 128 128 128z" />
<glyph unicode="&#xe903;" glyph-name="award" d="M512 192c-212.096 0-384 172.032-384 384 0 212.032 171.904 384 384 384 211.968 0 384-171.968 384-384 0-211.968-172.032-384-384-384zM512 832c-141.376 0-256-114.624-256-256s114.624-256 256-256 256 114.624 256 256-114.624 256-256 256zM512 384c-106.048 0-192 85.952-192 192s85.952 192 192 192 192-85.952 192-192-85.952-192-192-192zM768 208.64v-208.64c0-35.328-28.672-64-64-64-17.6 0-33.6 7.104-45.312 18.752v0l-146.688 146.752-146.752-146.752c-5.76-5.824-12.672-10.496-20.352-13.696-7.616-3.328-16.064-5.056-24.896-5.056-17.664 0-33.664 7.104-45.312 18.752-5.76 5.76-10.496 12.672-13.696 20.352-3.2 7.616-4.992 16-4.992 24.896v208.64c72.576-50.688 160.704-80.64 256-80.64 95.232 0 183.424 29.952 256 80.64z" />
<glyph unicode="&#xe904;" glyph-name="backspace" d="M896 64h-512c-17.664 0-33.664 7.104-45.248 18.752v0l-320 320c-11.584 11.648-18.752 27.584-18.752 45.248s7.168 33.664 18.752 45.248v0l320 320c11.584 11.584 27.584 18.752 45.248 18.752h512c70.656 0 128-57.344 128-128v-512c0-70.656-57.344-128-128-128zM896 640c0 35.328-28.672 64-64 64h-421.504l-256-256 256-256h421.504c35.328 0 64 28.672 64 64v384zM832 320c0-35.328-28.672-64-64-64-17.6 0-33.6 7.104-45.248 18.752v0l-82.752 82.752-82.752-82.752c-11.648-11.648-27.584-18.752-45.248-18.752-35.328 0-64 28.672-64 64 0 17.6 7.168 33.6 18.752 45.248v0l82.752 82.752-82.752 82.752c-11.584 11.584-18.752 27.584-18.752 45.248 0 35.328 28.672 64 64 64 17.664 0 33.6-7.168 45.248-18.752v0l82.752-82.752 82.752 82.752c11.648 11.584 27.648 18.752 45.248 18.752 35.328 0 64-28.672 64-64 0-17.664-7.104-33.664-18.752-45.248v0l-82.752-82.752 82.752-82.752c11.648-11.648 18.752-27.648 18.752-45.248z" />
<glyph unicode="&#xe905;" glyph-name="basket" d="M960 480h-15.744l-114.752-401.6-1.024 0.384c-7.616-26.816-31.232-46.784-60.48-46.784h-512c-29.248 0-52.864 19.968-60.48 46.72l-1.024-0.384-114.752 401.664h-15.744c-35.328 0-64 28.672-64 64s28.672 64 64 64h152.448l110.336 220.608 0.576-0.32c10.496 20.992 31.616 35.712 56.64 35.712 35.328 0 64-28.608 64-64 0-10.304-3.008-19.712-7.36-28.352l0.576-0.256-81.664-163.392h304.896l-81.728 163.392 0.512 0.256c-4.224 8.64-7.232 18.048-7.232 28.352 0 35.392 28.672 64 64 64 25.024 0 46.144-14.72 56.64-35.712l0.64 0.32 110.272-220.608h152.448c35.328 0 64-28.672 64-64s-28.672-64-64-64zM304.256 160h415.424l91.456 320h-598.272l91.392-320z" />
<glyph unicode="&#xe906;" glyph-name="battery" d="M960 256v-64c0-70.656-57.344-128-128-128h-704c-70.656 0-128 57.344-128 128v512c0 70.656 57.344 128 128 128h704c70.656 0 128-57.344 128-128v-64c35.328 0 64-28.672 64-64v-256c0-35.328-28.672-64-64-64zM832 640c0 35.328-28.672 64-64 64h-576c-35.392 0-64-28.672-64-64v-384c0-35.328 28.608-64 64-64h576c35.328 0 64 28.672 64 64v384zM448 256c-35.392 0-64 28.672-64 64v256c0 35.328 28.672 64 64 64s64-28.672 64-64v-256c0-35.328-28.672-64-64-64zM256 256c-35.392 0-64 28.672-64 64v256c0 35.328 28.608 64 64 64 35.328 0 64-28.672 64-64v-256c0-35.328-28.672-64-64-64z" />
<glyph unicode="&#xe907;" glyph-name="bell" d="M896 192c0-35.328-28.672-64-64-64h-192c0-70.656-57.344-128-128-128s-128 57.344-128 128h-192c-35.392 0-64 28.672-64 64 0 7.104 1.92 13.568 4.032 19.968l-0.768 0.256 60.736 182.144v181.632c0 176.768 143.232 320 320 320s320-143.232 320-320v-181.632l60.736-182.144-0.768-0.256c2.176-6.4 4.032-12.864 4.032-19.968zM707.968 364.032c-2.112 6.4-3.968 12.864-3.968 19.968v192c0 106.048-85.952 192-192 192s-192-85.952-192-192v-192c0-6.976-1.92-13.568-4.032-19.968l0.768-0.256-35.968-107.776h462.336l-35.84 107.776 0.704 0.256z" />
<glyph unicode="&#xe908;" glyph-name="bin" d="M960 640h-64v-640c0-35.328-28.672-64-64-64h-640c-35.392 0-64 28.672-64 64v640h-64c-35.328 0-64 28.672-64 64s28.672 64 64 64h192v128c0 35.328 28.608 64 64 64h384c35.328 0 64-28.672 64-64v-128h192c35.328 0 64-28.672 64-64s-28.672-64-64-64zM640 832h-256v-64h256v64zM768 128v448c0 35.328-28.672 64-64 64h-384c-35.392 0-64-28.672-64-64v-448c0-17.6 7.168-33.6 18.688-45.312 11.648-11.584 27.648-18.688 45.312-18.688h384c17.6 0 33.6 7.104 45.248 18.688 11.648 11.712 18.752 27.712 18.752 45.312v0zM640 192h-256c-35.328 0-64 28.672-64 64s28.672 64 64 64h256c35.328 0 64-28.672 64-64s-28.672-64-64-64zM640 384h-256c-35.328 0-64 28.672-64 64s28.672 64 64 64h256c35.328 0 64-28.672 64-64s-28.672-64-64-64z" />
<glyph unicode="&#xe909;" glyph-name="blockquote" d="M480 352v-128c0-70.656-57.28-128-128-128h-128c-70.656 0-128 57.344-128 128v256c0 176.704 143.232 320 320 320 35.328 0 64-28.672 64-64s-28.672-64-64-64v0c-106.048 0-192-85.952-192-192h128c70.656 0 128-57.28 128-128z" />
<glyph unicode="&#xe90a;" glyph-name="bluetooth" d="M809.344 224l13.248-13.312-256-256c-11.648-11.584-27.584-18.688-45.248-18.688-35.328 0-64 28.672-64 64v293.504l-146.752-146.752c-11.584-11.648-27.584-18.752-45.248-18.752-35.328 0-64 28.672-64 64 0 17.6 7.168 33.6 18.752 45.248v0l210.752 210.752-210.752 210.752c-11.584 11.584-18.752 27.584-18.752 45.248 0 35.328 28.672 64 64 64 17.664 0 33.664-7.168 45.248-18.752v0l146.752-146.688v293.44c0 35.328 28.672 64 64 64 17.664 0 33.6-7.168 45.248-18.752v0l256-256-13.248-13.248 13.248-13.248-210.752-210.752 210.752-210.752-13.248-13.248zM654.848 672l-69.504 69.504v-138.944l69.504 69.44zM585.344 293.504v-138.944l69.504 69.44-69.504 69.504z" />
<glyph unicode="&#xe90b;" glyph-name="bookmarks" d="M608 160l-320-192v640c0 70.656 57.344 128 128 128h384c70.656 0 128-57.344 128-128v-640l-320 192zM224 672v-435.2l-128-76.8v640c0 70.656 57.344 128 128 128h384c70.72 0 128-57.344 128-128h-384c-70.656 0-128-57.28-128-128z" />
<glyph unicode="&#xe90c;" glyph-name="briefcase" d="M896-64h-768c-70.656 0-128 57.344-128 128v576c0 70.656 57.344 128 128 128h128v64c0 70.656 57.28 128 128 128h256c70.656 0 128-57.344 128-128v-64h128c70.656 0 128-57.344 128-128v-576c0-70.656-57.344-128-128-128zM608 832h-192c-17.664 0-32-14.336-32-32s14.336-32 32-32h192c17.664 0 32 14.336 32 32s-14.336 32-32 32zM832 640h-640c-35.392 0-64-28.672-64-64s28.608-64 64-64h640c35.328 0 64 28.672 64 64s-28.672 64-64 64zM896 320c0 35.328-28.672 64-64 64h-64v-64c0-35.328-28.672-64-64-64-35.392 0-64 28.672-64 64v64h-256v-64c0-35.328-28.672-64-64-64-35.392 0-64 28.672-64 64v64h-64c-35.392 0-64-28.672-64-64v-192c0-35.328 28.608-64 64-64h640c35.328 0 64 28.672 64 64v192z" />
<glyph unicode="&#xe90d;" glyph-name="calc" d="M1002.569 250.002l-94.574-94.574 94.574-94.574c13.239-13.239 21.431-31.525 21.431-51.712 0-40.375-32.768-73.143-73.143-73.143-20.187 0-38.473 8.192-51.785 21.431v0l-94.501 94.574-94.574-94.574c-13.239-13.239-31.525-21.431-51.712-21.431-40.375 0-73.143 32.768-73.143 73.143 0 20.187 8.192 38.473 21.358 51.712v0l94.574 94.574-94.574 94.574c-13.166 13.239-21.358 31.525-21.358 51.712 0 40.375 32.768 73.143 73.143 73.143 20.187 0 38.473-8.119 51.712-21.358v0l94.574-94.647 94.501 94.574c13.312 13.239 31.598 21.431 51.785 21.431 40.375 0 73.143-32.695 73.143-73.143 0-20.187-8.192-38.473-21.431-51.712v0zM950.857 667.429h-292.571c-40.375 0-73.143 32.768-73.143 73.143s32.768 73.143 73.143 73.143h292.571c40.375 0 73.143-32.768 73.143-73.143s-32.768-73.143-73.143-73.143zM365.714-64h-292.571c-40.375 0-73.143 32.768-73.143 73.143s32.768 73.143 73.143 73.143h292.571c40.375 0 73.143-32.768 73.143-73.143s-32.768-73.143-73.143-73.143zM365.714 228.571h-292.571c-40.375 0-73.143 32.768-73.143 73.143s32.768 73.143 73.143 73.143h292.571c40.375 0 73.143-32.695 73.143-73.143s-32.768-73.143-73.143-73.143zM365.714 667.429h-73.143v-73.143c0-40.375-32.768-73.143-73.143-73.143s-73.143 32.768-73.143 73.143v73.143h-73.143c-40.375 0-73.143 32.768-73.143 73.143s32.768 73.143 73.143 73.143h73.143v73.143c0 40.375 32.768 73.143 73.143 73.143s73.143-32.768 73.143-73.143v-73.143h73.143c40.375 0 73.143-32.768 73.143-73.143s-32.768-73.143-73.143-73.143z" />
<glyph unicode="&#xe90e;" glyph-name="camera" d="M896 32h-768c-70.72 0-128 57.344-128 128v448c0 70.656 57.28 128 128 128h280.512c34.688 59.328 98.176 128 135.488 128h256c39.040 0 107.264-75.456 140.48-136.384 48.704-18.176 83.52-64.64 83.52-119.616v-448c0-70.656-57.344-128-128-128zM256 608h-64c-35.392 0-64-28.672-64-64s28.608-64 64-64h64c35.328 0 64 28.672 64 64s-28.672 64-64 64zM672 672c-159.104 0-288-128.96-288-288s128.896-288 288-288c159.040 0 288 128.96 288 288s-128.96 288-288 288zM672 224c-88.384 0-160 71.616-160 160s71.616 160 160 160c88.32 0 160-71.616 160-160s-71.68-160-160-160z" />
<glyph unicode="&#xe90f;" glyph-name="cancel" d="M873.984 85.952c-199.936-199.936-524.096-199.936-724.032 0s-199.936 524.096 0 724.032c199.936 200 524.096 200 724.032 0 200-199.936 200-524.096 0-724.032zM783.488 719.488c-149.952 149.952-393.088 149.952-543.040 0s-149.952-393.088 0-543.040 393.088-149.952 543.040 0 149.952 393.088 0 543.040zM640 256c-17.664 0-33.664 7.168-45.248 18.752v0l-82.752 82.688-82.752-82.752c-11.584-11.584-27.584-18.688-45.248-18.688-35.328 0-64 28.672-64 64 0 17.664 7.168 33.664 18.752 45.312v0l82.688 82.688-82.752 82.688c-11.584 11.648-18.688 27.648-18.688 45.312 0 35.328 28.672 64 64 64 17.664 0 33.664-7.168 45.248-18.752v0l82.752-82.752 82.752 82.688c11.584 11.648 27.584 18.816 45.248 18.816 35.328 0 64-28.672 64-64 0-17.664-7.168-33.664-18.752-45.248v0l-82.752-82.752 82.688-82.688c11.648-11.712 18.816-27.648 18.816-45.312 0-35.328-28.672-64-64-64z" />
<glyph unicode="&#xe910;" glyph-name="cash" d="M960 192v512c0 35.392-28.672 64-64 64h-768c0 35.328 28.672 64 64 64h768c35.328 0 64-28.672 64-64v-512c0-35.328-28.672-64-64-64zM896 640v-512c0-35.328-28.672-64-64-64h-768c-35.328 0-64 28.672-64 64v512c0 35.328 28.672 64 64 64h768c35.328 0 64-28.672 64-64zM768 512c0 35.328-28.672 64-64 64h-512c-35.328 0-64-28.672-64-64v-256c0-35.328 28.672-64 64-64h512c35.328 0 64 28.672 64 64v256zM448 256c-70.656 0-128 57.344-128 128s57.344 128 128 128 128-57.344 128-128-57.344-128-128-128z" />
<glyph unicode="&#xe911;" glyph-name="cellular-charged" d="M960-64h-896c-35.328 0-64 28.672-64 64 0 17.664 7.168 33.664 18.688 45.248v0l896 896c11.648 11.584 27.648 18.752 45.312 18.752 35.328 0 64-28.672 64-64v-896c0-35.328-28.672-64-64-64zM896 741.504l-320-320v-357.504h320v677.504z" />
<glyph unicode="&#xe912;" glyph-name="cellular-charging" d="M960-64h-896c-35.328 0-64 28.672-64 64 0 17.728 7.168 33.728 18.688 45.312v0l256 256c11.648 11.52 27.648 18.688 45.312 18.688 35.328 0 64-28.672 64-64 0-17.664-7.168-33.664-18.752-45.312v0l-146.752-146.688h677.504v677.504l-146.752-146.752c-11.584-11.584-27.584-18.752-45.248-18.752-35.328 0-64 28.672-64 64 0 17.664 7.168 33.664 18.752 45.248v0l256 256c11.584 11.584 27.584 18.752 45.248 18.752 35.328 0 64-28.608 64-64v-896c0-35.328-28.672-64-64-64zM512 384c-17.664 0-33.664 7.168-45.312 18.752v0l-82.688 82.752-82.752-82.752c-11.584-11.584-27.584-18.752-45.248-18.752-35.328 0-64 28.672-64 64 0 17.664 7.168 33.664 18.688 45.312v0l82.752 82.688-82.752 82.752c-11.52 11.584-18.688 27.584-18.688 45.248 0 35.392 28.672 64 64 64 17.664 0 33.664-7.168 45.248-18.752v0l82.752-82.752 82.688 82.752c11.648 11.584 27.648 18.752 45.312 18.752 35.328 0 64-28.608 64-64 0-17.664-7.168-33.664-18.752-45.248v0l-82.752-82.752 82.752-82.688c11.584-11.648 18.752-27.648 18.752-45.312 0-35.328-28.672-64-64-64z" />
<glyph unicode="&#xe913;" glyph-name="cellular-empty" d="M960-64h-896c-35.328 0-64 28.672-64 64 0 17.664 7.168 33.664 18.688 45.248v0l896 896c11.648 11.584 27.648 18.752 45.312 18.752 35.328 0 64-28.672 64-64v-896c0-35.328-28.672-64-64-64zM896 741.44l-677.504-677.44h677.504v677.44z" />
<glyph unicode="&#xe914;" glyph-name="celsius" d="M875.993 615.070v0c-92.239 92.318-241.9 92.318-334.218 0-92.239-92.239-92.239-241.9 0-334.139 92.318-92.318 241.9-92.318 334.218 0v0c30.799 30.72 80.66 30.72 111.458 0 30.72-30.799 30.72-80.66 0-111.458-153.836-153.836-403.22-153.836-556.977 0s-153.836 403.141 0 556.977c153.836 153.758 403.22 153.758 556.977 0 30.72-30.799 30.72-80.66 0-111.458-30.799-30.72-80.66-30.72-111.458 0.079zM118.154 605.538c-65.3 0-118.154 52.854-118.154 118.154s52.854 118.154 118.154 118.154c65.221 0 118.154-52.854 118.154-118.154s-52.933-118.154-118.154-118.154z" />
<glyph unicode="&#xe915;" glyph-name="check" d="M986.56 613.504v0l-512-512c-23.168-23.168-55.168-37.504-90.56-37.504s-67.392 14.336-90.56 37.504v0l-256 256c-23.104 23.168-37.44 55.168-37.44 90.496 0 70.656 57.344 128 128 128 35.328 0 67.328-14.336 90.496-37.504v0l165.504-165.504 421.44 421.504c23.232 23.168 55.232 37.504 90.56 37.504 70.656 0 128-57.344 128-128 0-35.328-14.336-67.328-37.44-90.496z" />
<glyph unicode="&#xe916;" glyph-name="clipboard" horiz-adv-x="896" d="M768-64h-640c-70.656 0-128 57.344-128 128v704c0 70.656 57.344 128 128 128h128c0 8 1.856 15.424 4.544 22.528 0.768 2.048 1.856 3.904 2.816 5.888 2.496 4.928 5.504 9.344 9.088 13.504 1.472 1.6 2.752 3.264 4.352 4.736 5.376 5.056 11.392 9.408 18.304 12.352 7.616 3.2 16.064 4.992 24.896 4.992h256c8.832 0 17.28-1.792 24.896-5.056 6.912-2.88 12.864-7.296 18.304-12.288 1.6-1.472 2.88-3.136 4.352-4.736 3.584-4.16 6.592-8.576 9.024-13.504 1.024-1.984 2.112-3.84 2.88-5.888 2.688-7.104 4.544-14.528 4.544-22.528h128c70.656 0 128-57.344 128-128v-704c0-70.656-57.344-128-128-128zM768 192v512c0 35.328-28.672 64-64 64h-64c0-35.328-28.672-64-64-64h-256c-35.328 0-64 28.672-64 64h-64c-35.328 0-64-28.672-64-64v-576c0-35.328 28.672-64 64-64h512c35.328 0 64 28.672 64 64v64zM576 192c-35.328 0-64 28.672-64 64s28.672 64 64 64 64-28.672 64-64-28.672-64-64-64zM576 448h-256c-35.328 0-64 28.672-64 64s28.672 64 64 64h256c35.328 0 64-28.672 64-64s-28.672-64-64-64zM320 320h64c35.328 0 64-28.672 64-64s-28.672-64-64-64h-64c-35.328 0-64 28.672-64 64s28.672 64 64 64z" />
<glyph unicode="&#xe917;" glyph-name="clock" d="M942.080 661.184c-54.912 84.992-134.016 152.768-227.968 193.216 22.336 61.44 80.704 105.6 149.888 105.6 88.384 0 160-71.68 160-160 0-59.904-33.28-111.424-81.92-138.816zM960 384c0-83.968-24.512-161.6-64.704-228.736l109.952-110.016c11.584-11.584 18.752-27.584 18.752-45.248 0-35.328-28.672-64-64-64-17.664 0-33.664 7.168-45.248 18.752v0l-100.48 100.48c-79.808-73.408-185.344-119.232-302.272-119.232s-222.464 45.824-302.272 119.232l-100.48-100.48c-11.584-11.584-27.584-18.752-45.248-18.752-35.328 0-64 28.672-64 64 0 17.664 7.168 33.664 18.752 45.248v0l109.952 110.016c-40.192 67.136-64.704 144.768-64.704 228.736 0 247.424 200.576 448 448 448s448-200.576 448-448zM512 704c-176.704 0-320-143.296-320-320s143.296-320 320-320c176.768 0 320 143.296 320 320s-143.232 320-320 320zM557.248 338.688v0l-128-128c-11.584-11.584-27.584-18.688-45.248-18.688-35.328 0-64 28.672-64 64 0 17.664 7.168 33.664 18.752 45.312v0l109.248 109.184v165.504c0 35.328 28.672 64 64 64s64-28.672 64-64v-192c0-17.664-7.168-33.664-18.752-45.312zM81.92 661.184c-48.64 27.392-81.92 78.912-81.92 138.816 0 88.32 71.616 160 160 160 69.184 0 127.552-44.16 149.888-105.6-93.888-40.448-173.056-108.224-227.968-193.216z" />
<glyph unicode="&#xe918;" glyph-name="club" d="M748.308 172.308c-130.521 0-236.308 105.787-236.308 236.308 0-130.442-105.787-236.308-236.308-236.308s-236.308 105.787-236.308 236.308c0 130.521 105.787 236.308 236.308 236.308 5.12 0 9.846-1.182 14.887-1.497-9.058 25.127-14.887 51.988-14.887 80.266 0 130.521 105.787 236.308 236.308 236.308s236.308-105.787 236.308-236.308c0-28.278-5.829-55.138-14.966-80.266 5.041 0.315 9.846 1.497 14.966 1.497 130.521 0 236.308-105.787 236.308-236.308s-105.787-236.308-236.308-236.308zM433.231 93.538v78.769c0 43.481 35.21 78.769 78.769 78.769 43.481 0 78.769-35.289 78.769-78.769v-78.769c43.481 0 78.769-35.289 78.769-78.769s-35.289-78.769-78.769-78.769h-157.538c-43.481 0-78.769 35.289-78.769 78.769s35.289 78.769 78.769 78.769z" />
<glyph unicode="&#xe919;" glyph-name="code" d="M1024 448c0-17.664-7.168-33.664-18.752-45.248v0l-128-128c-11.584-11.584-27.584-18.752-45.248-18.752-35.328 0-64 28.672-64 64 0 17.664 7.168 33.664 18.752 45.248v0l82.752 82.752-82.752 82.752c-11.584 11.584-18.752 27.584-18.752 45.248 0 35.328 28.672 64 64 64 17.664 0 33.664-7.168 45.248-18.688v0l128-128c11.584-11.648 18.752-27.648 18.752-45.312zM697.28 675.392l-256-512-0.64 0.32c-10.496-20.992-31.616-35.712-56.64-35.712-35.328 0-64 28.672-64 64 0 10.304 3.008 19.712 7.36 28.288l-0.64 0.32 256 512 0.576-0.32c10.56 20.992 31.68 35.712 56.704 35.712 35.328 0 64-28.672 64-64 0-10.368-3.008-19.712-7.36-28.352l0.64-0.256zM192 256c-17.664 0-33.664 7.168-45.248 18.752v0l-128 128c-11.584 11.584-18.752 27.584-18.752 45.248s7.168 33.664 18.752 45.248v0l128 128c11.584 11.584 27.584 18.752 45.248 18.752 35.328 0 64-28.672 64-64 0-17.664-7.168-33.664-18.688-45.248v0l-82.816-82.752 82.752-82.752c11.584-11.584 18.752-27.584 18.752-45.248 0-35.328-28.672-64-64-64z" />
<glyph unicode="&#xe91a;" glyph-name="comment" d="M896 192h-293.504l-237.248-237.248c-11.584-11.584-27.584-18.752-45.248-18.752-35.328 0-64 28.672-64 64v192h-128c-70.656 0-128 57.344-128 128v512c0 70.656 57.344 128 128 128h768c70.656 0 128-57.344 128-128v-512c0-70.656-57.344-128-128-128zM896 768c0 35.328-28.672 64-64 64h-640c-35.328 0-64-28.672-64-64v-384c0-35.328 28.672-64 64-64h128c35.328 0 64-28.672 64-64v-101.504l146.752 146.752c11.584 11.584 27.584 18.752 45.248 18.752h256c35.328 0 64 28.672 64 64v384z" />
<glyph unicode="&#xe91b;" glyph-name="computer" d="M1024 320v-64c0-70.656-57.344-128-128-128h-256v-64h64c35.328 0 64-28.672 64-64s-28.672-64-64-64h-384c-35.328 0-64 28.672-64 64 0 35.392 28.672 64 64 64h64v64h-256c-70.656 0-128 57.344-128 128v576c0 70.656 57.344 128 128 128h768c70.656 0 128-57.344 128-128v-512zM896 704v0 64c0 35.328-28.672 64-64 64h-640c-35.328 0-64-28.672-64-64v-384c0-35.328 28.672-64 64-64h640c35.328 0 64 28.672 64 64v320z" />
<glyph unicode="&#xe91c;" glyph-name="cone" d="M1024 192c0-26.432-16-49.024-38.784-58.752v-0.064l-0.256-0.064c-0.064 0-0.064 0-0.128-0.064l-447.616-191.872c-7.808-3.264-16.256-5.184-25.216-5.184s-17.408 1.92-25.216 5.248v0l-447.616 191.872c-0.064 0-0.064 0-0.128 0.064l-0.192 0.064v0.064c-22.848 9.664-38.848 32.256-38.848 58.688s16 48.96 38.784 58.752v0.064l0.192 0.064c0.064 0 0.064 0.064 0.128 0.064l92.928 39.872 50.112-21.504 36.928 90.24 233.792 561.024c9.728 23.168 32.512 39.424 59.136 39.424s49.344-16.256 59.008-39.424v0l233.792-561.024 36.928-90.24 50.176 21.504 92.928-39.872c0.064 0 0.064 0 0.128-0.064l0.256-0.064v-0.064c22.784-9.792 38.784-32.32 38.784-58.752zM512 729.6l-60.928-146.112c19.264-4.416 39.424-7.488 60.928-7.488s41.664 3.072 60.864 7.488l-60.864 146.112zM620.032 470.272c-30.784-14.016-67.968-22.272-108.032-22.272s-77.312 8.256-108.032 22.272l-50.496-121.024c43.648-17.728 97.792-29.248 158.528-29.248s114.816 11.52 158.464 29.248l-50.432 121.024zM512 192c-83.264 0-156.224 20.224-202.752 51.008l-30.592-73.408 233.344-99.968 233.344 99.968-30.592 73.408c-46.592-30.784-119.488-51.008-202.752-51.008z" />
<glyph unicode="&#xe91d;" glyph-name="contrast" d="M512-64c-282.752 0-512 229.248-512 512s229.248 512 512 512c282.752 0 512-229.248 512-512s-229.248-512-512-512zM512 832c-212.032 0-384-171.904-384-384s171.968-384 384-384c212.096 0 384 171.904 384 384s-171.904 384-384 384zM480 128c-41.856 0-32 0-32 0-146.048 29.632-256 165.184-256 320s109.952 290.368 256 320c0 0-7.488 0 32 0 17.664 0 32-14.336 32-32v-576c0-17.664-14.336-32-32-32z" />
<glyph unicode="&#xe91e;" glyph-name="credit-card" d="M896 64h-768c-70.656 0-128 57.344-128 128v512c0 70.656 57.344 128 128 128h768c70.656 0 128-57.344 128-128v-512c0-70.656-57.344-128-128-128zM896 640c0 35.328-28.672 64-64 64h-640c-35.328 0-64-28.672-64-64v-64h768v64zM896 448h-768v-192c0-35.328 28.672-64 64-64h640c35.328 0 64 28.672 64 64v192zM384 256h-128c-35.392 0-64 28.672-64 64s28.608 64 64 64h128c35.328 0 64-28.672 64-64s-28.672-64-64-64z" />
<glyph unicode="&#xe91f;" glyph-name="crop" d="M928 64h-32v-32c0-53.056-42.944-96-96-96-52.992 0-96 42.944-96 96v32h-480c-52.992 0-96 42.944-96 96v480h-32c-53.056 0-96 43.008-96 96 0 53.056 42.944 96 96 96h32v32c0 53.056 43.008 96 96 96 53.056 0 96-42.944 96-96v-608h608c53.056 0 96-43.008 96-96s-42.944-96-96-96zM832 320h-64c-35.328 0-64 28.608-64 64v256h-256c-35.328 0-64 28.672-64 64v64c0 35.328 28.672 64 64 64h352c53.056 0 96-42.944 96-96v-352c0-35.328-28.672-64-64-64z" />
<glyph unicode="&#xe920;" glyph-name="cursor" horiz-adv-x="576" d="M576 384c0-35.328-28.672-64-64-64h-167.232l99.968-299.776-0.768-0.256c2.112-6.336 4.032-12.864 4.032-19.968 0-35.328-28.672-64-64-64-28.224 0-51.456 18.624-59.968 44.032l-0.768-0.256-95.232 285.76-118.72-118.784c-11.648-11.584-27.648-18.752-45.312-18.752-35.328 0-64 28.672-64 64v704c0 35.328 28.672 64 64 64 19.2 0 35.968-8.896 47.68-22.272l0.512 0.448 448-512-0.512-0.512c9.792-11.2 16.32-25.536 16.32-41.664z" />
<glyph unicode="&#xe921;" glyph-name="cut" d="M921.6 795.136l-313.071-313.003 140.22-140.22c11.81 2.185 23.825 3.686 36.318 3.686 113.118 0 204.8-91.682 204.8-204.8s-91.682-204.8-204.8-204.8-204.8 91.682-204.8 204.8c0 49.289 18.159 93.935 47.172 129.365l-115.439 115.439-115.439-115.439c29.013-35.43 47.172-80.077 47.172-129.365 0-113.118-91.682-204.8-204.8-204.8s-204.8 91.682-204.8 204.8c0 113.118 91.682 204.8 204.8 204.8 12.425 0 24.508-1.502 36.318-3.686l140.22 140.22-313.071 313.003v164.864c18.842 0 35.908-7.646 48.265-20.002v0l361.335-361.335 361.267 361.335c12.425 12.356 29.491 20.002 48.333 20.002v-164.864zM785.067 72.533c37.683 0 68.267 30.583 68.267 68.267s-30.583 68.267-68.267 68.267-68.267-30.583-68.267-68.267 30.583-68.267 68.267-68.267zM238.933 209.067c-37.683 0-68.267-30.583-68.267-68.267s30.583-68.267 68.267-68.267 68.267 30.583 68.267 68.267-30.583 68.267-68.267 68.267z" />
<glyph unicode="&#xe922;" glyph-name="dnd" d="M896-64h-64v128c35.328 0 64 28.672 64 64h128v-64c0-70.72-57.344-128-128-128zM896 384h128v-128h-128v128zM896 640h128v-128h-128v128zM832 832v128h64c70.656 0 128-57.344 128-128v-64h-128c0 35.328-28.672 64-64 64zM576 64h128v-128h-128v128zM576 960h128v-128h-128v128zM640 512c35.328 0 64-28.672 64-64s-28.608-64-64-64h-64v-64c0-35.328-28.672-64-64-64-35.392 0-64 28.672-64 64v64h-64c-35.392 0-64 28.608-64 64s28.608 64 64 64h64v64c0 35.328 28.608 64 64 64 35.328 0 64-28.672 64-64v-64h64zM320 960h128v-128h-128v128zM0 64v64h128c0-35.328 28.608-64 64-64v-128h-64c-70.72 0-128 57.28-128 128zM128 768h-128v64c0 70.656 57.28 128 128 128h64v-128c-35.392 0-64-28.672-64-64zM128 512h-128v128h128v-128zM128 256h-128v128h128v-128zM448-64h-128v128h128v-128z" />
<glyph unicode="&#xe923;" glyph-name="dashboard" d="M768 768c0 0-109.824-510.272-145.152-573.248s-113.6-84.608-174.848-48.192-82.176 116.928-46.848 179.968c35.328 62.976 366.848 441.472 366.848 441.472zM539.264 573.248c-9.152 0.64-17.92 2.752-27.264 2.752-212.032 0-384-172.032-384-384 0-35.328-28.672-64-64-64s-64 28.672-64 64c0 282.752 229.248 512 512 512 32.064 0 63.232-3.328 93.696-8.96l-66.432-121.792zM838.144 586.688c113.536-93.952 185.856-235.84 185.856-394.688 0-35.328-28.672-64-64-64s-64 28.672-64 64c0 110.080-46.848 208.64-121.152 278.656l63.296 116.032z" />
<glyph unicode="&#xe924;" glyph-name="data-storage" d="M191.927 176.567c61.952-34.304 181.248-57.71 320.073-57.71s258.121 23.406 320.073 57.71c79.214 32.037 138.24 75.118 168.155 125.147 13.97-23.259 23.771-47.543 23.771-73.143 0-141.458-229.23-256-512-256s-512 114.542-512 256c0 25.6 9.801 49.883 23.771 73.143 29.989-50.030 88.942-93.111 168.155-125.147zM191.927 395.995c61.952-34.304 181.248-57.71 320.073-57.71s258.121 23.406 320.073 57.71c79.214 32.037 138.24 75.191 168.155 125.147 13.97-23.333 23.771-47.543 23.771-73.143 0-141.458-229.23-256-512-256s-512 114.542-512 256c0 25.6 9.801 49.81 23.771 73.143 29.989-50.030 88.942-93.184 168.155-125.147zM1015.881 708.096c-39.278 121.929-249.051 215.333-503.881 215.333-254.903 0-464.677-93.403-503.808-215.333-4.901-13.239-8.192-26.697-8.192-40.667 0-35.328 14.336-68.974 40.229-99.694 25.893-30.647 63.415-58.222 109.714-81.335 92.672-46.299 220.672-74.971 362.057-74.971 141.458 0 269.458 28.672 362.057 75.045 46.299 23.113 83.822 50.688 109.714 81.335 25.966 30.647 40.229 64.293 40.229 99.621 0 13.97-3.291 27.429-8.119 40.667zM512 557.714c-202.021 0-365.714 49.152-365.714 109.714 0 60.635 163.694 109.714 365.714 109.714s365.714-49.079 365.714-109.714c0-60.562-163.694-109.714-365.714-109.714z" />
<glyph unicode="&#xe925;" glyph-name="data-transmission" horiz-adv-x="640" d="M640 768c0-35.328-28.672-64-64-64-17.664 0-33.664 7.168-45.248 18.688v0l-18.752 18.752v-357.44c0-35.328-28.672-64-64-64s-64 28.672-64 64v357.44l-18.752-18.752c-11.584-11.52-27.584-18.688-45.248-18.688-35.328 0-64 28.672-64 64 0 17.664 7.168 33.664 18.752 45.248v0l128 128c11.584 11.584 27.584 18.752 45.248 18.752s33.664-7.168 45.248-18.752v0l128-128c11.584-11.584 18.752-27.584 18.752-45.248zM256 154.496l18.752 18.752c11.584 11.584 27.584 18.752 45.248 18.752 35.328 0 64-28.672 64-64 0-17.664-7.168-33.664-18.752-45.312v0l-128-128c-11.584-11.52-27.584-18.688-45.248-18.688s-33.664 7.168-45.248 18.752v0l-128 128c-11.584 11.584-18.752 27.584-18.752 45.248 0 35.328 28.672 64 64 64 17.664 0 33.664-7.168 45.248-18.752v0l18.752-18.752v357.504c0 35.328 28.672 64 64 64s64-28.672 64-64v-357.504z" />
<glyph unicode="&#xe926;" glyph-name="dialer" d="M204.8 960h68.267c37.683 0 68.267-30.583 68.267-68.267v-68.267c0-37.683-30.583-68.267-68.267-68.267h-68.267c-37.683 0-68.267 30.583-68.267 68.267v68.267c0 37.683 30.583 68.267 68.267 68.267zM204.8 686.933h68.267c37.683 0 68.267-30.515 68.267-68.267v-68.267c0-37.683-30.583-68.267-68.267-68.267h-68.267c-37.683 0-68.267 30.583-68.267 68.267v68.267c0 37.751 30.583 68.267 68.267 68.267zM204.8 413.867h68.267c37.683 0 68.267-30.583 68.267-68.267v-68.267c0-37.683-30.583-68.267-68.267-68.267h-68.267c-37.683 0-68.267 30.583-68.267 68.267v68.267c0 37.683 30.583 68.267 68.267 68.267zM477.867 960h68.267c37.683 0 68.267-30.583 68.267-68.267v-68.267c0-37.683-30.583-68.267-68.267-68.267h-68.267c-37.683 0-68.267 30.583-68.267 68.267v68.267c0 37.683 30.583 68.267 68.267 68.267zM750.933 960h68.267c37.683 0 68.267-30.583 68.267-68.267v-68.267c0-37.683-30.583-68.267-68.267-68.267h-68.267c-37.683 0-68.267 30.583-68.267 68.267v68.267c0 37.683 30.583 68.267 68.267 68.267zM477.867 686.933h68.267c37.683 0 68.267-30.515 68.267-68.267v-68.267c0-37.683-30.583-68.267-68.267-68.267h-68.267c-37.683 0-68.267 30.583-68.267 68.267v68.267c0 37.751 30.583 68.267 68.267 68.267zM750.933 686.933h68.267c37.683 0 68.267-30.515 68.267-68.267v-68.267c0-37.683-30.583-68.267-68.267-68.267h-68.267c-37.683 0-68.267 30.583-68.267 68.267v68.267c0 37.751 30.583 68.267 68.267 68.267zM477.867 413.867h68.267c37.683 0 68.267-30.583 68.267-68.267v-68.267c0-37.683-30.583-68.267-68.267-68.267h-68.267c-37.683 0-68.267 30.583-68.267 68.267v68.267c0 37.683 30.583 68.267 68.267 68.267zM750.933 413.867h68.267c37.683 0 68.267-30.583 68.267-68.267v-68.267c0-37.683-30.583-68.267-68.267-68.267h-68.267c-37.683 0-68.267 30.583-68.267 68.267v68.267c0 37.683 30.583 68.267 68.267 68.267zM477.867 140.8h68.267c37.683 0 68.267-30.583 68.267-68.267v-68.267c0-37.683-30.583-68.267-68.267-68.267h-68.267c-37.683 0-68.267 30.583-68.267 68.267v68.267c0 37.683 30.583 68.267 68.267 68.267z" />
<glyph unicode="&#xe927;" glyph-name="disconnect" d="M1005.248 850.752v0l-153.984-153.92c27.968-44.416 44.736-96.576 44.736-152.832 0-71.168-26.816-135.552-69.632-185.792-9.92-22.4-32.256-38.208-58.368-38.208-17.664 0-33.664 7.168-45.248 18.688v0l-18.752 18.816-82.752-82.752c-11.584-11.584-27.584-18.752-45.248-18.752-35.328 0-64 28.672-64 64 0 17.664 7.168 33.664 18.752 45.248v0l82.752 82.752-101.504 101.504-82.752-82.752c-11.584-11.584-27.584-18.752-45.248-18.752-35.328 0-64 28.672-64 64 0 17.664 7.168 33.664 18.752 45.248v0l82.752 82.752-18.752 18.752c-11.584 11.584-18.752 27.584-18.752 45.248 0 26.112 15.744 48.448 38.208 58.368 50.24 42.816 114.56 69.632 185.792 69.632 56.256 0 108.416-16.832 152.768-44.736l153.984 153.984c11.584 11.584 27.584 18.752 45.248 18.752 35.328 0 64-28.672 64-64 0-17.664-7.168-33.664-18.752-45.248zM493.248 109.248c11.584-11.584 18.752-27.584 18.752-45.248 0-9.92-2.88-19.008-6.912-27.392-9.664-11.136-20.032-21.376-31.296-30.976-12.352-10.56-25.6-20.032-39.552-28.48-0.896-0.576-1.856-1.024-2.752-1.472-12.992-7.68-26.624-14.336-40.768-19.968-5.12-1.984-10.56-3.2-15.808-4.928-10.752-3.584-21.504-7.168-32.832-9.344-17.536-3.328-35.52-5.44-54.080-5.44-17.28 0-33.984 2.176-50.432 5.056-6.208 1.152-12.288 2.624-18.368 4.096-9.472 2.304-18.688 5.312-27.776 8.576-19.712 7.232-38.72 15.936-56.256 26.88v0l-25.984-25.92-1.024 1.024c-11.2-11.776-26.368-19.712-44.16-19.712-35.328 0-64 28.672-64 64 0 17.792 7.936 32.96 19.776 44.224l-1.024 1.024 25.984 25.984c-11.008 17.536-19.712 36.544-26.944 56.256-3.264 9.088-6.272 18.24-8.576 27.712-1.536 6.080-3.008 12.16-4.096 18.368-2.944 16.448-5.12 33.152-5.12 50.432 0 18.56 2.112 36.544 5.44 54.080 2.24 11.264 5.824 22.016 9.344 32.832 1.664 5.248 2.944 10.688 4.928 15.808 5.568 14.144 12.288 27.776 19.968 40.704 0.512 0.96 0.96 1.856 1.472 2.752 8.448 13.952 17.92 27.2 28.48 39.616 9.536 11.2 19.84 21.568 30.976 31.232 8.384 4.16 17.472 6.976 27.392 6.976 17.664 0 33.664-7.168 45.248-18.752v0l320-320z" />
<glyph unicode="&#xe928;" glyph-name="dollar-sign" horiz-adv-x="640" d="M576 576c-35.392 0-70.528 28.672-70.528 64v0c-13.248 37.12-47.872 64-89.472 64h-192c-53.056 0-96-42.944-96-96 0-52.992 42.944-96 96-96h192c123.776 0 224-100.224 224-224s-100.224-224-224-224h-32v-64c0-35.328-28.672-64-64-64-35.392 0-64 28.672-64 64v64h-32c-100.48 0-184.384 66.56-212.608 157.696-6.592 10.048-11.392 21.376-11.392 34.304 0 35.328 28.608 64 64 64 35.328 0 70.464-28.672 70.464-64v0c13.312-37.12 47.872-64 89.536-64h192c52.992 0 96 42.944 96 96 0 52.992-43.008 96-96 96h-192c-123.712 0-224 100.288-224 224s100.288 224 224 224h32v64c0 35.392 28.608 64 64 64 35.328 0 64-28.608 64-64v-64h32c100.352 0 184.32-66.496 212.608-157.632 6.592-10.112 11.392-21.44 11.392-34.368 0-35.328-28.672-64-64-64z" />
<glyph unicode="&#xe929;" glyph-name="download" d="M922.039 107.374c-228.498-228.571-598.967-228.571-827.465 0-28.599 28.599-28.599 74.825 0 103.424 28.526 28.599 74.825 28.599 103.424 0 171.374-171.374 449.243-171.374 620.617 0 28.599 28.599 74.825 28.599 103.424 0s28.599-74.825 0-103.424zM706.341 396.288v0l-146.286-146.286c-13.239-13.239-31.525-21.431-51.712-21.431s-38.473 8.192-51.712 21.431v0l-146.286 146.286c-13.239 13.239-21.431 31.525-21.431 51.712 0 40.375 32.768 73.143 73.143 73.143 20.187 0 38.473-8.192 51.712-21.431v0l21.431-21.431v408.576c0 40.375 32.768 73.143 73.143 73.143s73.143-32.768 73.143-73.143v-408.576l21.431 21.431c13.166 13.239 31.451 21.431 51.712 21.431 40.375 0 73.143-32.768 73.143-73.143 0-20.187-8.265-38.473-21.431-51.712z" />
<glyph unicode="&#xe92a;" glyph-name="drop" horiz-adv-x="848" d="M724.129 60.125c-165.696-165.631-434.242-165.631-599.873 0-165.696 165.696-165.696 434.242 0 599.938 7.897 7.897 23.037 23.037 23.037 23.037l276.9 276.9 276.9-276.9c0 0 15.075-15.14 23.037-23.102 165.631-165.631 165.631-434.177 0-599.873zM631.851 567.785c-7.897 7.897-23.102 23.037-23.102 23.037l-184.556 184.556-184.622-184.556c0 0-15.14-15.075-23.037-23.037-114.662-114.662-114.662-300.589 0-415.317 114.662-114.662 300.589-114.662 415.317 0s114.662 300.589 0 415.317zM391.562 131.716c-36.024 0-65.26 29.171-65.26 65.26 0 36.024 29.237 65.26 65.26 65.26 72.047 0 130.521 58.473 130.521 130.521 0 36.089 29.237 65.26 65.26 65.26s65.26-29.237 65.26-65.26c0-144.16-116.881-261.041-261.041-261.041z" />
<glyph unicode="&#xe92b;" glyph-name="eject" d="M827.077 251.077h-630.154c-86.961 0-157.538 70.577-157.538 157.538 0 37.258 13.47 70.971 35.052 97.989l-0.551 0.473 315.077 393.846 0.551-0.394c28.908 35.998 72.704 59.471 122.486 59.471s93.578-23.473 122.486-59.55l0.551 0.473 315.077-393.846-0.551-0.394c21.583-27.018 35.052-60.81 35.052-98.068 0-86.961-70.498-157.538-157.538-157.538zM157.538 172.308h708.923c65.3 0 118.154-52.854 118.154-118.154s-52.854-118.154-118.154-118.154h-708.923c-65.221 0-118.154 52.933-118.154 118.154s52.933 118.154 118.154 118.154z" />
<glyph unicode="&#xe92c;" glyph-name="enlarge" d="M896 64h-256c-35.392 0-64 28.672-64 64 0 35.392 28.608 64 64 64h192c35.328 0 64 28.672 64 64v512c0 35.392-28.672 64-64 64h-512c-35.328 0-64-28.608-64-64v-192c0-35.328-28.672-64-64-64-35.392 0-64 28.672-64 64v256c0 70.656 57.28 128 128 128h640c70.656 0 128-57.344 128-128v-640c0-70.656-57.344-128-128-128zM640 640h-192c-35.392 0-64-28.672-64-64s28.608-64 64-64h37.44l-132.736-132.736c-10.496 2.752-21.312 4.736-32.704 4.736h-192c-70.72 0-128-57.344-128-128v-192c0-70.656 57.28-128 128-128h192c70.656 0 128 57.344 128 128v192c0 11.392-1.984 22.272-4.8 32.704l132.8 132.8v-37.504c0-35.328 28.608-64 64-64s64 28.672 64 64v192c0 35.328-28.672 64-64 64zM320 128c0-35.328-28.672-64-64-64h-64c-35.328 0-64 28.672-64 64v64c0 35.328 28.608 64 64 64h64c35.328 0 64-28.672 64-64v-64z" />
<glyph unicode="&#xe92d;" glyph-name="exit" d="M1024 512c0-17.664-7.168-33.664-18.752-45.248v0l-128-128c-11.584-11.584-27.584-18.752-45.248-18.752-35.328 0-64 28.608-64 64 0 17.664 7.168 33.664 18.752 45.248v0l18.752 18.752h-165.504c-35.328 0-64 28.672-64 64s28.672 64 64 64h165.504l-18.752 18.688c-11.584 11.648-18.752 27.648-18.752 45.312 0 35.328 28.672 64 64 64 17.664 0 33.664-7.168 45.248-18.752v0l128-128c11.584-11.584 18.752-27.584 18.752-45.248zM832 832h-536.96l121.856-73.152-0.576-0.896c18.624-11.264 31.68-30.656 31.68-53.952v-512h384c35.328 0 64-28.672 64-64s-28.672-64-64-64h-384v-64c0-35.328-28.672-64-64-64-12.096 0-22.72 4.224-32.384 10.048l-0.576-0.96-320 192 0.576 0.96c-8.576 5.184-15.616 12.096-20.928 20.608-0.768 1.216-1.6 2.176-2.304 3.392-4.864 9.088-8.384 18.944-8.384 29.952v704c0 26.496 16.128 49.28 39.104 58.944 7.616 3.264 16.064 5.056 24.896 5.056v0h768c35.328 0 64-28.672 64-64s-28.672-64-64-64z" />
<glyph unicode="&#xe92e;" glyph-name="expand" d="M928 448c-52.992 0-96 42.944-96 96v88.256l-188.096-188.096c0 0-26.496 3.84-35.904 3.84-52.992 0-96 42.944-96 96 0 9.408-3.904 35.904-3.904 35.904l188.16 188.096h-88.256c-52.992 0-96 43.008-96 96s43.008 96 96 96h320c53.056 0 96-43.008 96-96v-320c0-53.056-42.944-96-96-96zM515.904 316.096l-188.096-188.096h88.192c53.056 0 96-42.944 96-96s-42.944-96-96-96h-320c-53.056 0-96 42.944-96 96v320c0 53.056 42.944 96 96 96s96-42.944 96-96v-88.256l188.096 188.096c0 0 26.496-3.84 35.904-3.84 53.056 0 96-42.944 96-96 0-9.344 3.904-35.904 3.904-35.904z" />
<glyph unicode="&#xe92f;" glyph-name="fahrenheit" d="M921.6 755.2h-204.8c-56.525 0-102.4-45.773-102.4-102.4v-102.4h204.8c56.525 0 102.4-45.875 102.4-102.4s-45.875-102.4-102.4-102.4h-204.8v-307.2c0-56.525-45.875-102.4-102.4-102.4s-102.4 45.875-102.4 102.4v716.8c0 113.050 91.75 204.8 204.8 204.8h307.2c56.525 0 102.4-45.875 102.4-102.4s-45.875-102.4-102.4-102.4zM153.6 652.8c-84.89 0-153.6 68.71-153.6 153.6s68.71 153.6 153.6 153.6c84.787 0 153.6-68.71 153.6-153.6s-68.813-153.6-153.6-153.6z" />
<glyph unicode="&#xe930;" glyph-name="fast-forward" d="M1024 448c0-40.448-19.136-76.032-48.384-99.52l0.384-0.448-320-256-0.384 0.384c-21.952-17.472-49.344-28.416-79.616-28.416-70.656 0-128 57.344-128 128v92.096l-240-192-0.384 0.384c-21.952-17.536-49.344-28.48-79.616-28.48-70.656 0-128 57.344-128 128v512c0 70.656 57.344 128 128 128 30.272 0 57.664-10.944 79.616-28.48l0.384 0.448 240-192v92.032c0 70.656 57.344 128 128 128 30.272 0 57.664-10.944 79.616-28.48l0.384 0.448 320-256-0.384-0.448c29.248-23.488 48.384-59.072 48.384-99.52z" />
<glyph unicode="&#xe931;" glyph-name="favourite" d="M262.528-24.448c91.776 43.456 251.52 119.232 251.52 119.232s156.928-73.664 256.768-120.576c-32.384 15.232 83.456-66.176 72.832 46.72-10.24 108.544-26.752 282.944-26.752 282.944s114.496 127.488 185.984 207.168c-29.824-33.28 82.176 57.536-22.080 77.248-105.408 19.904-294.4 33.792-294.4 33.792s-75.2 173.632-130.688 269.632c25.856-44.672-29.248 98.688-84.608 2.112-55.040-96-135.68-272.448-135.68-272.448s-183.232-14.336-288.768-34.56c41.344 7.936-96.576 4.224-26.496-73.344 71.488-79.040 190.464-210.752 190.464-210.752s-15.936-175.168-25.792-283.712c2.496 28.032-36.096-97.408 77.696-43.456z" />
<glyph unicode="&#xe932;" glyph-name="file-storage" horiz-adv-x="896" d="M866.816 395.712l0.64-0.96-384-256-0.64 0.96c-10.176-6.784-21.696-11.712-34.816-11.712-13.184 0-24.704 4.928-34.88 11.712l-0.64-0.96-384 256 0.64 0.96c-17.152 11.52-29.12 30.080-29.12 52.288 0 35.328 28.608 64 64 64 13.12 0 24.64-4.928 34.816-11.712l0.64 0.96 348.544-232.32 348.48 232.32 0.64-0.96c10.176 6.784 21.696 11.712 34.88 11.712 35.328 0 64-28.672 64-64 0-22.208-12.032-40.768-29.184-52.288zM866.816 587.712l0.64-0.96-384-256-0.64 0.96c-10.176-6.784-21.696-11.712-34.816-11.712-13.184 0-24.704 4.928-34.88 11.712l-0.64-0.96-384 256 0.64 0.96c-17.152 11.52-29.12 30.080-29.12 52.288s11.968 40.768 29.12 52.288l-0.64 0.96 384 256 0.64-0.96c10.176 6.784 21.696 11.712 34.88 11.712 13.12 0 24.64-4.928 34.816-11.712l0.64 0.96 384-256-0.64-0.96c17.152-11.52 29.184-30.080 29.184-52.288s-12.032-40.768-29.184-52.288zM448 819.072l-268.608-179.072 268.608-179.072 268.608 179.072-268.608 179.072zM64 320c13.12 0 24.64-4.992 34.816-11.776l0.64 0.96 348.544-232.256 348.48 232.32 0.64-0.96c10.176 6.784 21.696 11.712 34.88 11.712 35.328 0 64-28.672 64-64 0-22.208-12.032-40.768-29.184-52.288l0.64-0.96-384-256-0.64 0.96c-10.176-6.784-21.696-11.712-34.816-11.712-13.184 0-24.704 4.928-34.88 11.712l-0.64-0.96-384 256 0.64 0.96c-17.152 11.52-29.12 30.080-29.12 52.288 0 35.328 28.608 64 64 64z" />
<glyph unicode="&#xe933;" glyph-name="file-stroke" horiz-adv-x="768" d="M768 64c0-26.496-8.064-51.136-21.824-71.552-9.216-13.632-20.992-25.344-34.624-34.56-6.784-4.608-14.080-8.576-21.696-11.84-15.296-6.464-32.192-10.048-49.856-10.048h-512c-17.664 0-34.496 3.584-49.792 10.048-7.68 3.264-14.912 7.168-21.76 11.84-13.632 9.216-25.344 20.928-34.56 34.56-13.824 20.416-21.888 45.056-21.888 71.552v768c0 70.656 57.344 128 128 128h256c17.664 0 33.664-7.168 45.248-18.752v0l320-320c11.584-11.584 18.752-27.584 18.752-45.248v-512zM320 832h-128c-35.328 0-64-28.672-64-64v-640c0-35.328 28.672-64 64-64h384c35.328 0 64 28.672 64 64v384h-256c-35.328 0-64 28.672-64 64v256zM448 640h101.504l-101.504 101.504v-101.504z" />
<glyph unicode="&#xe934;" glyph-name="files" horiz-adv-x="832" d="M128 128c0-35.328 28.608-64 64-64h448c0-70.72-57.28-128-128-128h-384c-70.72 0-128 57.28-128 128v576c0 70.656 57.28 128 128 128v-640zM704 128h-384c-70.72 0-128 57.344-128 128v576c0 70.656 57.28 128 128 128h128c17.6 0 33.6-7.168 45.248-18.688l320-320c11.648-11.648 18.752-27.648 18.752-45.312v-255.872c0 0 0-0.064 0-0.128v-64c0-70.656-57.344-128-128-128zM512 741.504v-101.504h101.504l-101.504 101.504zM704 448v0 64h-256c-35.392 0-64 28.672-64 63.936v224.064c0 17.664-14.336 32-32 32s-32-14.336-32-32v-480c0-35.328 28.608-64 64-64h256c35.392 0 64 28.672 64 64v128z" />
<glyph unicode="&#xe935;" glyph-name="folder-open" d="M950.857 9.143h-804.571c40.375 0 73.143 32.768 73.143 73.143v365.714c0 40.448 32.768 73.143 73.143 73.143h658.286c40.375 0 73.143-32.695 73.143-73.143v-365.714c0-40.375-32.768-73.143-73.143-73.143zM804.571 594.286h-585.143c-40.375 0-73.143-32.695-73.143-73.143v-365.714c0-40.375-32.768-73.143-73.143-73.143s-73.143 32.768-73.143 73.143v658.286c0 20.187 8.192 38.473 21.431 51.712s31.525 21.431 51.712 21.431h365.714c17.335 0 32.622-6.875 45.129-16.969 58.075-37.961 116.224-129.317 174.299-129.317h146.286c40.375 0 73.143-32.695 73.143-73.143 0-40.375-32.768-73.143-73.143-73.143z" />
<glyph unicode="&#xe936;" glyph-name="folder" d="M950.857 9.143h-877.714c-20.187 0-38.473 8.192-51.712 21.431s-21.431 31.525-21.431 51.712v731.429c0 40.375 32.768 73.143 73.143 73.143h365.714c17.335 0 32.622-6.875 45.129-16.969 58.149-37.961 116.224-129.317 174.299-129.317h292.571c40.375 0 73.143-32.695 73.143-73.143v-585.143c0-40.375-32.768-73.143-73.143-73.143z" />
<glyph unicode="&#xe937;" glyph-name="font-size" d="M448 384c-35.392 0-64 28.672-64 64h-64v-320c35.328 0 64-28.672 64-64s-28.608-64-64-64h-128c-35.392 0-64 28.672-64 64s28.608 64 64 64v320h-64c0-35.328-28.672-64-64-64-35.392 0-64 28.672-64 64v64c0 35.328 28.608 64 64 64h384c35.328 0 64-28.672 64-64v-64c0-35.328-28.672-64-64-64zM960 640c-35.392 0-64 28.672-64 64v64h-128v-640h64c35.328 0 64-28.672 64-64s-28.608-64-64-64h-256c-35.392 0-64 28.672-64 64s28.608 64 64 64h64v640h-128v-64c0-35.328-28.672-64-64-64-35.392 0-64 28.672-64 64v128c0 35.328 28.672 64 64 64h512c35.328 0 64-28.672 64-64v-128c0-35.328-28.672-64-64-64z" />
<glyph unicode="&#xe938;" glyph-name="gear" horiz-adv-x="896" d="M833.6 530.624l0.192-0.384-9.536-5.696c5.056-24.768 7.744-50.368 7.744-76.544 0-26.24-2.688-51.776-7.744-76.48l9.536-5.76-0.192-0.384c37.248-22.4 62.4-62.784 62.4-109.376 0-70.656-57.344-128-128-128-24.064 0-46.4 7.040-65.6 18.624l-0.256-0.384-11.136 6.72c-34.112-28.096-72.576-50.368-115.008-65.472v-23.488c0-70.72-57.344-128-128-128s-128 57.28-128 128v23.488c-42.432 15.104-80.96 37.312-115.008 65.408l-11.136-6.72-0.192 0.384c-19.264-11.52-41.6-18.56-65.664-18.56-70.656 0-128 57.344-128 128 0 46.592 25.152 86.976 62.4 109.376l-0.256 0.384 9.6 5.76c-5.056 24.704-7.744 50.24-7.744 76.48 0 26.176 2.688 51.776 7.744 76.48l-9.6 5.696 0.256 0.384c-37.248 22.464-62.4 62.848-62.4 109.44 0 70.656 57.344 128 128 128 24.064 0 46.4-7.040 65.6-18.624l0.192 0.384 11.2-6.72c34.048 28.096 72.576 50.368 115.008 65.408v23.552c0 70.656 57.344 128 128 128s128-57.344 128-128v-23.552c42.432-15.040 80.896-37.312 115.008-65.408l11.136 6.656 0.256-0.384c19.2 11.648 41.536 18.688 65.6 18.688 70.656 0 128-57.344 128-128 0-46.592-25.152-86.976-62.4-109.376zM448 704c-141.376 0-256-114.624-256-256s114.624-256 256-256c141.376 0 256 114.624 256 256s-114.624 256-256 256zM448 320c-70.656 0-128 57.28-128 128 0 70.656 57.344 128 128 128s128-57.344 128-128c0-70.72-57.344-128-128-128z" />
<glyph unicode="&#xe939;" glyph-name="graph-bar" d="M768 832v0 0 0 0zM640 256c-35.392 0-64 28.672-64 64v384c0 35.328 28.608 64 64 64 35.328 0 64-28.672 64-64v-384c0-35.328-28.672-64-64-64zM448 256c-35.392 0-64 28.672-64 64v128c0 35.328 28.608 64 64 64 35.328 0 64-28.672 64-64v-128c0-35.328-28.672-64-64-64zM256 256c-35.392 0-64 28.672-64 64v320c0 35.328 28.608 64 64 64 35.328 0 64-28.672 64-64v-320c0-35.328-28.672-64-64-64zM960 192c35.328 0 64-28.672 64-64s-28.608-64-64-64h-896c-35.328 0-64 28.672-64 64v640c0 35.328 28.608 64 64 64s64-28.672 64-64v-576h64c0 0 0 0 0 0h768zM832 256c-35.392 0-64 28.672-64 64v256c0 35.328 28.608 64 64 64 35.328 0 64-28.672 64-64v-256c0-35.328-28.672-64-64-64z" />
<glyph unicode="&#xe93a;" glyph-name="graph-line" d="M960 512c-35.392 0-64 28.672-64 64v37.44l-274.752-274.688c-11.584-11.584-27.584-18.752-45.248-18.752s-33.664 7.168-45.312 18.752v0l-82.688 82.752-146.752-146.816c-11.584-11.52-27.584-18.688-45.248-18.688-35.392 0-64 28.672-64 64 0 17.664 7.168 33.664 18.752 45.248v0l192 192c11.584 11.584 27.584 18.752 45.248 18.752s33.664-7.168 45.248-18.752v0l82.752-82.688 229.44 229.44h-37.44c-35.328 0-64 28.672-64 64s28.672 64 64 64h192c35.328 0 64-28.672 64-64v-192c0-35.328-28.672-64-64-64zM960 192c35.328 0 64-28.672 64-64s-28.608-64-64-64h-896c-35.328 0-64 28.672-64 64v640c0 35.328 28.608 64 64 64s64-28.672 64-64v-576h832z" />
<glyph unicode="&#xe93b;" glyph-name="hand" d="M685.397-56.422c-24.986 7.919-61.918-7.578-105.131-7.578-37.956 0-98.577 0-136.533 0-17.681 0-33.519 5.666-47.991 13.517l-8.124 5.393c-21.777 14.814-36.796 36.796-42.257 63.488l-208.828 327.202c-31.949 17.34-68.267 63.488-68.267 102.4 0 56.593 45.807 102.4 102.4 102.4 52.975 0 97.075-16.657 102.4-68.267l68.267-88.474v463.94c0 56.525 45.807 102.4 102.4 102.4 56.525 0 102.4-45.875 102.4-102.4v-177.562c10.786 3.891 21.982 6.895 34.133 6.895 47.172 0 85.333-32.7 97.075-76.254 12.151 5.12 25.463 7.987 39.458 7.987 47.172 0 85.333-32.7 97.075-76.254 12.151 5.12 25.463 7.987 39.458 7.987 56.525 0 102.4-45.807 102.4-102.4v-170.667c0-164.113-115.985-300.988-270.336-333.756z" />
<glyph unicode="&#xe93c;" glyph-name="heart" d="M939.648 404.352l1.6-1.6-384-384c-11.584-11.584-27.584-18.752-45.248-18.752s-33.664 7.168-45.248 18.688v0l-384 384 1.6 1.6c-52.096 52.16-84.352 124.224-84.352 203.712 0 159.040 128.96 288 288 288 91.008 0 171.2-43.072 224-108.992 52.8 65.92 132.992 108.992 224 108.992 159.040 0 288-128.96 288-288 0-79.488-32.256-151.552-84.352-203.648z" />
<glyph unicode="&#xe93d;" glyph-name="horisontal-scale" d="M1024 320c0-17.664-7.168-33.664-18.752-45.248v0l-128-128c-11.584-11.584-27.584-18.752-45.248-18.752-35.392 0-64 28.672-64 64 0 17.664 7.168 33.664 18.688 45.248v0l18.752 18.752h-101.44c-35.392 0-64 28.672-64 64s28.608 64 64 64h101.44l-18.752 18.752c-11.52 11.584-18.688 27.584-18.688 45.248 0 35.328 28.608 64 64 64 17.664 0 33.664-7.168 45.248-18.752v0l128-128c11.584-11.584 18.752-27.584 18.752-45.248zM768 640c-35.328 0-64 28.672-64 64v64h-128v-640h64c35.392 0 64-28.672 64-64s-28.608-64-64-64h-256c-35.328 0-64 28.672-64 64s28.672 64 64 64h64v640h-128v-64c0-35.328-28.608-64-64-64s-64 28.672-64 64v128c0 35.328 28.672 64 64 64h512c35.392 0 64-28.672 64-64v-128c0-35.328-28.672-64-64-64zM256 448c0-17.664-7.168-33.664-18.752-45.248v0l-18.752-18.752h101.504c35.328 0 64-28.672 64-64s-28.672-64-64-64h-101.504l18.752-18.752c11.584-11.584 18.752-27.584 18.752-45.248 0-35.328-28.672-64-64-64-17.664 0-33.664 7.168-45.312 18.752v0l-128 128c-11.52 11.584-18.688 27.584-18.688 45.248s7.168 33.664 18.688 45.248v0l128 128c11.648 11.584 27.648 18.752 45.312 18.752 35.328 0 64-28.672 64-64z" />
<glyph unicode="&#xe93e;" glyph-name="image" d="M896 0h-768c-70.656 0-128 57.344-128 128v640c0 70.72 57.344 128 128 128h768c70.656 0 128-57.28 128-128v-640c0-70.656-57.344-128-128-128zM896 704c0 35.328-28.672 64-64 64h-640c-35.328 0-64-28.672-64-64v-512c0-35.328 28.672-64 64-64h640c35.328 0 64 28.672 64 64v512zM192 256l128 128 128-64 192 192 192-128v-192h-640v64zM288 512c-52.992 0-96 42.944-96 96s43.008 96 96 96c53.056 0 96-42.944 96-96s-42.944-96-96-96z" />
<glyph unicode="&#xe93f;" glyph-name="inbox" d="M1024 45.714c0-40.375-32.768-73.143-73.143-73.143h-877.714c-40.375 0-73.143 32.768-73.143 73.143 0 4.974 1.902 9.362 2.853 14.043l-1.463 0.293 73.143 365.714 1.463-0.293c6.729 33.426 34.889 59.099 70.29 59.099 40.375 0 73.143-32.768 73.143-73.143 0-4.974-1.829-9.362-2.853-14.043l1.463-0.219-55.662-278.309h699.246l-55.589 278.235 1.463 0.219c-1.024 4.754-2.926 9.143-2.926 14.117 0 40.375 32.768 73.143 73.143 73.143 35.401 0 63.561-25.673 70.29-59.099l1.463 0.293 73.143-365.714-1.463-0.293c1.024-4.681 2.853-9.070 2.853-14.043zM658.286 192h-292.571c-40.375 0-73.143 32.768-73.143 73.143s32.768 73.143 73.143 73.143h292.571c40.375 0 73.143-32.768 73.143-73.143s-32.768-73.143-73.143-73.143zM710.071 579.145l-146.286-146.286c-13.312-13.239-31.598-21.431-51.785-21.431s-38.473 8.192-51.712 21.431v0l-146.286 146.286c-13.239 13.239-21.431 31.525-21.431 51.712 0 40.375 32.768 73.143 73.143 73.143 20.187 0 38.473-8.192 51.785-21.431v0l21.358-21.358v189.074c0 40.448 32.768 73.143 73.143 73.143s73.143-32.695 73.143-73.143v-189.074l21.431 21.358c13.239 13.239 31.525 21.431 51.712 21.431 40.375 0 73.143-32.768 73.143-73.143 0-20.187-8.192-38.473-21.358-51.712v0z" />
<glyph unicode="&#xe940;" glyph-name="invisible" d="M941.248 786.752l-768-768c-11.584-11.584-27.584-18.752-45.248-18.752-35.328 0-64 28.672-64 64 0 17.664 7.168 33.664 18.752 45.248v0l768 768c11.584 11.584 27.584 18.752 45.248 18.752 35.328 0 64-28.672 64-64 0-17.664-7.168-33.664-18.752-45.248v0zM512 704c-141.376 0-256-114.624-256-256 0-22.784 3.904-44.48 9.472-65.472l-117.184-117.184c-91.584 71.68-148.288 150.848-148.288 182.656 0 64 229.248 320 512 320 42.368 0 83.328-6.272 122.688-16.256l-57.216-57.28c-21.056 5.568-42.688 9.536-65.472 9.536zM512 192c141.376 0 256 114.624 256 256 0 22.784-3.968 44.416-9.536 65.472l117.184 117.184c91.648-71.68 148.352-150.848 148.352-182.656 0-64-229.248-320-512-320-42.432 0-83.328 6.272-122.688 16.256l57.28 57.216c20.928-5.568 42.624-9.472 65.408-9.472z" />
<glyph unicode="&#xe941;" glyph-name="label" d="M986.496 485.504v0l-512-512c-23.168-23.168-55.168-37.504-90.496-37.504s-67.328 14.336-90.496 37.44v0l-256 256c-23.168 23.232-37.504 55.232-37.504 90.56s14.336 67.328 37.504 90.496v0l512 512c23.168 23.168 55.104 37.504 90.496 37.504h256c70.656 0 128-57.344 128-128v-256c0-35.328-14.336-67.328-37.504-90.496zM768 832c-70.656 0-128-57.344-128-128 0-70.72 57.344-128 128-128s128 57.28 128 128c0 70.656-57.344 128-128 128z" />
<glyph unicode="&#xe942;" glyph-name="leave" d="M64 64h320c22.208 0 40.768 12.032 52.288 29.184l0.96-0.64 108.992 163.456h57.536l173.312-288.896 0.96 0.576c11.2-18.56 30.72-31.68 53.952-31.68 35.328 0 64 28.608 64 64 0 12.096-4.224 22.72-10.048 32.384l0.96 0.576-192 320-0.96-0.576c-11.2 18.56-30.656 31.616-53.952 31.616v0h-49.92l23.104 115.328 187.072-106.88 0.512 0.896c9.344-5.376 19.648-9.344 31.232-9.344 22.208 0 40.832 12.032 52.288 29.184l0.96-0.64 128 192-0.96 0.64c6.784 10.176 11.712 21.696 11.712 34.816 0 35.328-28.672 64-64 64-22.208 0-40.768-12.032-52.224-29.12l-1.024 0.64-94.848-142.272-396.16 226.368-0.512-0.96c-9.344 5.44-19.648 9.344-31.232 9.344-25.024 0-46.144-14.72-56.64-35.648l-0.64 0.256-128-256 0.576-0.256c-4.288-8.64-7.296-17.984-7.296-28.352 0-35.328 28.672-64 64-64 25.024 0 46.144 14.72 56.64 35.712l0.576-0.256 97.728 195.456 85.056-48.64-44.288-221.312-101.952-152.96h-285.76c-35.328 0-64-28.608-64-64 0-35.328 28.672-64 64-64zM704 704c70.656 0 128 57.344 128 128s-57.344 128-128 128-128-57.344-128-128 57.344-128 128-128z" />
<glyph unicode="&#xe943;" glyph-name="letter" d="M1024 128c0-35.328-28.672-64-64-64-26.432 0-49.024 16-58.752 38.72h-0.064l-0.064 0.256c0 0 0 0-0.064 0.128l-38.208 88.896h-174.656l-74.496 186.432 95.296 222.464c0 0.064 0.064 0.064 0.064 0.128l0.064 0.192h0.064c9.792 22.784 32.384 38.784 58.816 38.784 26.368 0 49.024-16 58.752-38.784v0l0.064-0.192c0-0.064 0.064-0.064 0.064-0.128l191.872-447.68c3.392-7.744 5.248-16.192 5.248-25.216zM768 413.504l-40.064-93.504h80.128l-40.064 93.504zM634.944 152.896l0.448-1.152-0.192-0.064 4.8-24.448-5.056-24.128c0-0.128 0-0.128-0.064-0.128l-0.064-0.256c-2.88-6.656-7.168-12.544-12.032-17.856-1.536-1.664-3.392-3.008-5.12-4.544-4.032-3.52-8.384-6.464-13.184-8.896-2.048-1.024-3.904-2.112-6.080-2.944-7.040-2.624-14.4-4.48-22.4-4.48s-15.424 1.856-22.4 4.48c-2.368 0.896-4.352 2.112-6.656 3.264-4.416 2.304-8.448 4.992-12.16 8.192-2.176 1.792-4.224 3.584-6.144 5.696-3.328 3.776-5.952 7.936-8.32 12.416-1.152 2.048-2.688 3.968-3.648 6.208l-0.192-0.064-60.608 151.808h-271.744l-60.736-151.808-0.192 0.128c-9.408-23.552-32.256-40.32-59.2-40.32-35.328 0-64 28.672-64 64 0 8.384 1.856 16.32 4.8 23.68l-0.192 0.064 0.448 1.152 255.552 638.848 0.192-0.064c9.408 23.552 32.256 40.32 59.2 40.32s49.792-16.768 59.2-40.32l0.192 0.064 255.552-638.848zM320 595.712l-84.672-211.712h169.344l-84.672 211.712z" />
<glyph unicode="&#xe944;" glyph-name="line-spacing" d="M960 768h-384c-35.328 0-64 28.672-64 64 0 35.392 28.672 64 64 64h384c35.328 0 64-28.608 64-64 0-35.328-28.672-64-64-64zM274.752 173.248v0c11.584 11.584 27.584 18.752 45.248 18.752 35.328 0 64-28.672 64-64 0-17.664-7.168-33.664-18.752-45.248v0l-128-128c-11.584-11.584-27.584-18.752-45.248-18.752s-33.664 7.168-45.248 18.752v0l-128 128c-11.584 11.584-18.752 27.584-18.752 45.248 0 35.328 28.672 64 64 64 17.664 0 33.664-7.168 45.248-18.752v0l18.752-18.688v586.944l-18.752-18.752c-11.584-11.584-27.584-18.752-45.248-18.752-35.328 0-64 28.672-64 64 0 17.664 7.168 33.664 18.752 45.248v0l128 128c11.584 11.584 27.584 18.752 45.248 18.752s33.664-7.168 45.248-18.752v0l128-128c11.584-11.584 18.752-27.584 18.752-45.248 0-35.328-28.672-64-64-64-17.664 0-33.664 7.168-45.248 18.752v0l-18.752 18.752v-586.944l18.752 18.688zM576 640h256c35.328 0 64-28.672 64-64s-28.672-64-64-64h-256c-35.328 0-64 28.672-64 64s28.672 64 64 64zM576 384h384c35.328 0 64-28.672 64-64s-28.672-64-64-64h-384c-35.328 0-64 28.672-64 64s28.672 64 64 64zM576 128h256c35.328 0 64-28.672 64-64s-28.672-64-64-64h-256c-35.328 0-64 28.672-64 64s28.672 64 64 64z" />
<glyph unicode="&#xe945;" glyph-name="link" d="M722.752 466.752v0c-11.584 11.584-18.752 27.584-18.752 45.248 0 35.328 28.672 64 64 64 17.664 0 33.664-7.168 45.248-18.752v0l128-128-90.56-90.496-127.936 128zM704 320c0-35.328-28.672-64-64-64-17.664 0-33.664 7.168-45.248 18.752v0l-256 256c-11.584 11.584-18.752 27.584-18.752 45.248 0 35.328 28.672 64 64 64 17.664 0 33.664-7.168 45.312-18.752v0l256-256c11.52-11.584 18.688-27.584 18.688-45.248zM320 832v-3.2c-10.368 2.048-21.056 3.2-32 3.2-88.32 0-160-71.616-160-160 0-44.16 17.92-84.16 46.848-113.152l-90.496-90.496c-52.096 52.096-84.352 124.096-84.352 203.648 0 159.040 128.96 288 288 288 7.296 0 14.336-1.216 21.312-2.176 3.648 0.64 6.912 2.176 10.688 2.176 35.328 0 64-28.672 64-64s-28.672-64-64-64zM301.248 429.248v0c11.584-11.584 18.752-27.584 18.752-45.248 0-35.328-28.672-64-64-64-17.664 0-33.664 7.168-45.248 18.752v0l-128 128 90.56 90.496 127.936-128zM704 64v3.2c10.368-2.112 21.056-3.2 32-3.2 88.384 0 160 71.68 160 160 0 44.16-17.92 84.16-46.848 113.152l90.496 90.56c52.16-52.224 84.352-124.16 84.352-203.712 0-159.040-128.96-288-288-288-7.296 0-14.272 1.216-21.312 2.176-3.648-0.64-6.912-2.176-10.688-2.176-35.328 0-64 28.672-64 64s28.672 64 64 64z" />
<glyph unicode="&#xe946;" glyph-name="load" horiz-adv-x="896" d="M768 512c-70.656 0-128 57.344-128 128s57.344 128 128 128 128-57.344 128-128-57.344-128-128-128zM448-64c-70.656 0-128 57.344-128 128s57.344 128 128 128 128-57.344 128-128-57.344-128-128-128zM448 704c-70.656 0-128 57.344-128 128s57.344 128 128 128 128-57.344 128-128-57.344-128-128-128zM128 128c-70.656 0-128 57.344-128 128s57.344 128 128 128 128-57.344 128-128-57.344-128-128-128zM128 512c-70.656 0-128 57.344-128 128s57.344 128 128 128 128-57.344 128-128-57.344-128-128-128zM768 384c70.656 0 128-57.344 128-128s-57.344-128-128-128-128 57.344-128 128 57.344 128 128 128z" />
<glyph unicode="&#xe947;" glyph-name="location" d="M960 384h-69.824c-27.072-160.384-153.6-286.464-314.176-313.536v-70.464c0-35.328-28.672-64-64-64s-64 28.672-64 64v70.464c-160.576 27.072-287.104 153.152-314.24 313.536h-69.76c-35.328 0-64 28.672-64 64s28.672 64 64 64h69.76c27.136 160.384 153.664 286.464 314.24 313.536v70.464c0 35.328 28.672 64 64 64s64-28.672 64-64v-70.464c160.576-27.072 287.104-153.152 314.176-313.536h69.824c35.328 0 64-28.672 64-64s-28.672-64-64-64zM512 704c-141.376 0-256-114.624-256-256s114.624-256 256-256c141.376 0 256 114.624 256 256s-114.624 256-256 256zM512 320c-70.656 0-128 57.344-128 128s57.344 128 128 128 128-57.344 128-128-57.344-128-128-128z" />
<glyph unicode="&#xe948;" glyph-name="lock-rotate" d="M1005.312 466.752v0l-128-128c-11.648-11.584-27.648-18.752-45.312-18.752s-33.664 7.168-45.312 18.752v0l-128 128c-11.52 11.584-18.688 27.584-18.688 45.248 0 35.328 28.608 64 64 64 17.664 0 33.664-7.168 45.248-18.752v0l15.744-15.808c-15.040 162.688-150.336 290.56-316.992 290.56-176.704 0-320-143.232-320-320 0-45.568 9.792-88.768 27.008-128h-27.008c-35.328 0-64-28.672-64-64v-35.456c-39.68 66.944-64 144-64 227.456 0 247.424 200.576 448 448 448 239.168 0 432.832-187.968 445.568-423.936l21.184 21.184c11.584 11.584 27.584 18.752 45.248 18.752 35.328 0 64-28.672 64-64 0-17.664-7.168-33.664-18.688-45.248zM192 320v64c0 106.048 85.952 192 192 192s192-85.952 192-192v-64c35.328 0 64-28.672 64-64v-256c0-35.328-28.672-64-64-64h-384c-35.392 0-64 28.672-64 64v256c0 35.328 28.672 64 64 64zM320 320h128v64c0 35.328-28.672 64-64 64s-64-28.672-64-64v-64z" />
<glyph unicode="&#xe949;" glyph-name="lock" horiz-adv-x="896" d="M640-64h-384c-141.376 0-256 114.624-256 256v256c0 70.656 57.28 128 128 128v64c0 176.704 143.232 320 320 320 176.704 0 320-143.296 320-320v-64c70.656 0 128-57.344 128-128v-256c0-141.376-114.624-256-256-256zM384 209.728v-81.728c0-35.328 28.608-64 64-64 35.328 0 64 28.672 64 64v81.728c38.080 22.208 64 63.040 64 110.272 0 70.656-57.344 128-128 128-70.72 0-128-57.344-128-128 0-47.232 25.856-88.064 64-110.272zM448 832c-106.048 0-192-85.952-192-192 0-22.592 4.608-43.904 11.776-64h360.448c7.168 20.096 11.776 41.408 11.776 64 0 106.048-85.952 192-192 192z" />
<glyph unicode="&#xe94a;" glyph-name="magnet" d="M960 448c-35.328 0-64 28.672-64 64 0 176.768-143.296 320-320 320-35.328 0-64 28.672-64 64s28.672 64 64 64c247.424 0 448-200.576 448-448 0-35.328-28.672-64-64-64zM576 768c141.376 0 256-114.624 256-256 0-35.328-28.672-64-64-64v0 0c-35.328 0-64 28.672-64 64 0 70.656-57.344 128-128 128-35.328 0-64 28.672-64 64v0 0c0 35.328 28.672 64 64 64zM225.6 523.648l105.344 105.344 90.56-90.496-105.408-105.344-90.496 90.496zM74.944 373.056v0 0l105.344 105.344 90.496-90.496-105.344-105.344c-23.104-23.232-37.44-55.168-37.44-90.56 0-70.656 57.344-128 128-128 35.328 0 67.328 14.336 90.496 37.504v0l105.344 105.344 90.496-90.56-105.344-105.344c-23.168-23.168-50.752-41.92-81.408-54.848-30.592-12.928-64.256-20.096-99.584-20.096-141.376 0-256 114.624-256 256 0 35.392 7.168 69.056 20.096 99.648 12.992 30.656 31.744 58.176 54.848 81.408zM602.496 357.504l90.56-90.56-105.344-105.344-90.56 90.496 105.344 105.408z" />
<glyph unicode="&#xe94b;" glyph-name="mail-notice" d="M955.733 345.6c37.683 0 68.267-30.583 68.267-68.267s-30.583-68.267-68.267-68.267h-12.561c-2.389-6.69-4.915-13.175-7.919-19.524l8.738-8.806c26.692-26.624 26.692-69.769 0-96.529-26.692-26.692-69.837-26.692-96.529 0l-8.738 8.806c-6.349-3.004-12.834-5.53-19.524-7.919v-12.561c0-37.683-30.583-68.267-68.267-68.267-37.751 0-68.267 30.583-68.267 68.267v12.561c-6.69 2.389-13.175 4.915-19.524 7.919l-8.738-8.738c-26.692-26.692-69.837-26.692-96.529 0s-26.692 69.837 0 96.529l8.738 8.738c-3.072 6.349-5.598 12.834-7.919 19.524h-12.561c-37.751 0-68.267 30.583-68.267 68.267s30.515 68.267 68.267 68.267h12.561c2.321 6.69 4.847 13.175 7.919 19.524l-8.806 8.738c-26.692 26.692-26.692 69.837 0 96.529 26.761 26.692 69.905 26.692 96.529 0l8.806-8.738c6.349 3.004 12.834 5.598 19.524 7.919v12.561c0 37.683 30.515 68.267 68.267 68.267 37.683 0 68.267-30.583 68.267-68.267v-12.561c6.69-2.389 13.175-4.915 19.524-7.919l8.738 8.738c26.692 26.692 69.837 26.692 96.529 0s26.692-69.837 0-96.529l-8.738-8.738c3.004-6.349 5.53-12.834 7.919-19.524h12.561zM750.933 618.667c-23.415 0-46.217-2.389-68.267-6.895v22.801l-237.978-142.677-0.614 0.956c-10.24-6.212-21.641-10.718-34.475-10.718-12.902 0-24.235 4.506-34.543 10.718l-0.614-0.956-237.909 142.677v-220.706c0-37.683 30.515-68.267 68.267-68.267h211.695c-4.506-22.050-6.895-44.851-6.895-68.267 0-23.347 2.389-46.217 6.895-68.267h-279.962c-75.435 0-136.533 61.167-136.533 136.533v409.6c0 75.366 61.099 136.533 136.533 136.533h546.133c75.366 0 136.533-61.167 136.533-136.533v-143.428c-22.050 4.506-44.919 6.895-68.267 6.895zM614.4 755.2h-409.6c-1.024 0-1.843-0.546-2.867-0.614l207.667-124.587 207.667 124.587c-1.024 0.068-1.775 0.614-2.867 0.614z" />
<glyph unicode="&#xe94c;" glyph-name="mail" d="M896 864h-768c-70.656 0-128-57.344-128-128v-576c0-70.656 57.344-128 128-128h768c70.656 0 128 57.344 128 128v576c0 70.656-57.344 128-128 128zM799.488 736l-242.24-242.176c-25.024-25.024-65.472-25.024-90.496 0l-242.24 242.176h574.976zM832 160h-640c-35.392 0-64 28.672-64 64v427.52l293.504-293.376c49.984-49.984 131.008-49.984 180.992 0l293.504 293.504v-427.648c0-35.328-28.608-64-64-64z" />
<glyph unicode="&#xe94d;" glyph-name="mails" d="M887.467 209.067v477.867c0 37.683-30.583 68.267-68.267 68.267h-614.4c0 75.435 61.167 136.533 136.533 136.533h546.133c75.366 0 136.533-61.099 136.533-136.533v-409.6c0-75.366-61.167-136.533-136.533-136.533zM819.2 550.4v-409.6c0-75.366-61.167-136.533-136.533-136.533h-546.133c-75.435 0-136.533 61.167-136.533 136.533v409.6c0 75.366 61.099 136.533 136.533 136.533h546.133c75.366 0 136.533-61.167 136.533-136.533zM136.533 209.067c0-37.683 30.515-68.267 68.267-68.267h409.6c37.683 0 68.267 30.583 68.267 68.267v220.774l-237.978-142.814-0.614 1.024c-10.24-6.212-21.641-10.718-34.475-10.718-12.902 0-24.235 4.506-34.543 10.718l-0.614-1.024-237.909 142.814v-220.774zM614.4 550.4h-409.6c-1.024 0-1.911-0.546-2.867-0.614l207.667-124.587 207.667 124.587c-1.024 0.068-1.843 0.614-2.867 0.614z" />
<glyph unicode="&#xe94e;" glyph-name="map-marker" d="M767.808 63.968v202.893l82.987 82.987 44.981-29.945 127.968-383.904-255.936 127.968zM536.442 199.87c-24.634-18.363-49.204 0-49.204 0s-295.286 221.705-295.286 417.56c0 2.751 0.576 5.311 0.832 8.062-0.32 5.375-0.832 10.813-0.832 16.38 0 175.7 143.196 318.128 319.92 318.128s319.92-142.428 319.92-318.128c0-5.567-0.576-10.941-0.832-16.38 0.256-2.751 0.832-5.375 0.832-8.062 0-195.855-270.716-399.26-295.35-417.56zM511.872 764.209c-67.951 0-123.041-54.77-123.041-122.337 0-67.631 55.090-122.401 123.041-122.401s123.041 54.77 123.041 122.401c-0.064 67.567-55.090 122.337-123.041 122.337zM255.936 63.968l-255.936-127.968 127.968 383.904 44.981 30.008 82.987-83.051v-202.893zM421.335 101.463c23.162-23.226 55.154-37.495 90.537-37.495 35.319 0 67.311 14.332 90.473 37.495v0l101.479 101.415v-170.901l-191.952-95.976-191.952 95.976v170.901l101.415-101.415z" />
<glyph unicode="&#xe94f;" glyph-name="map-pin" horiz-adv-x="831" d="M831.428 536.035c0 234.143-186.112 423.965-415.714 423.965s-415.714-189.821-415.714-423.965c0-7.419 0.704-14.582 1.087-21.873-0.32-3.582-1.087-7.099-1.087-10.745 0-260.941 383.736-556.481 383.736-556.481s31.978-24.495 63.956 0c31.978 24.431 383.736 295.541 383.736 556.481 0 3.709-0.767 7.163-1.087 10.745 0.384 7.291 1.087 14.454 1.087 21.873zM415.714 372.948c-88.323 0-159.89 73.038-159.89 163.088s71.567 163.088 159.89 163.088 159.89-73.038 159.89-163.088-71.567-163.088-159.89-163.088z" />
<glyph unicode="&#xe950;" glyph-name="map" d="M951.774 80.384l0.341-0.614-273.067-136.533-0.341 0.614c-9.148-4.642-19.183-7.851-30.174-7.851v0c-11.059 0-21.026 3.209-30.242 7.851l-0.273-0.614-242.551 121.242-242.551-121.242-0.341 0.614c-9.148-4.642-19.183-7.851-30.174-7.851-37.683 0-68.267 30.583-68.267 68.267v750.933c0 26.692 15.701 49.22 38.025 60.484l-0.273 0.546 273.067 136.533 0.273-0.614c9.216 4.642 19.183 7.851 30.242 7.851v0c10.991 0 21.026-3.209 30.174-7.851l0.341 0.614 242.551-121.242 242.551 121.242 0.273-0.614c9.216 4.642 19.183 7.851 30.242 7.851 37.683 0 68.267-30.583 68.267-68.267v-750.933c0-26.692-15.701-49.22-38.093-60.416zM307.2 781.278l-136.533-68.267v-598.289l136.533 68.267v598.289zM443.733 182.989l136.533-68.267v598.289l-136.533 68.267v-598.289zM853.333 781.278l-136.533-68.267v-598.289l136.533 68.267v598.289z" />
<glyph unicode="&#xe951;" glyph-name="marker-list" d="M950.857 667.429h-585.143c-40.375 0-73.143 32.768-73.143 73.143 0 40.448 32.768 73.143 73.143 73.143h585.143c40.375 0 73.143-32.695 73.143-73.143 0-40.375-32.768-73.143-73.143-73.143zM365.714 521.143h585.143c40.375 0 73.143-32.768 73.143-73.143s-32.768-73.143-73.143-73.143h-585.143c-40.375 0-73.143 32.768-73.143 73.143s32.768 73.143 73.143 73.143zM365.714 228.571h585.143c40.375 0 73.143-32.695 73.143-73.143 0-40.375-32.768-73.143-73.143-73.143h-585.143c-40.375 0-73.143 32.768-73.143 73.143 0 40.448 32.768 73.143 73.143 73.143zM73.143 813.714c40.375 0 73.143-32.695 73.143-73.143 0-40.375-32.768-73.143-73.143-73.143s-73.143 32.768-73.143 73.143c0 40.448 32.768 73.143 73.143 73.143zM73.143 521.143c40.375 0 73.143-32.768 73.143-73.143s-32.768-73.143-73.143-73.143-73.143 32.768-73.143 73.143 32.768 73.143 73.143 73.143zM73.143 228.571c40.375 0 73.143-32.695 73.143-73.143 0-40.375-32.768-73.143-73.143-73.143s-73.143 32.768-73.143 73.143c0 40.448 32.768 73.143 73.143 73.143z" />
<glyph unicode="&#xe952;" glyph-name="max" horiz-adv-x="1025" d="M383.568 256.216c0-35.352-28.64-63.928-63.928-63.928-17.58 0-33.562 7.096-45.261 18.667v0l-109.125 109.189h-101.326c-35.288 0-63.928 28.576-63.928 63.928v127.856c0 35.288 28.64 63.928 63.928 63.928h101.326l109.125 109.125c11.635 11.571 27.617 18.731 45.261 18.731 35.288 0 63.928-28.64 63.928-63.928v-383.568zM818.407-45.397c-25.060-24.74-65.526-24.74-90.65 0-24.996 24.804-24.996 65.015 0 89.691 225.219 222.981 225.219 584.431 0 807.348-24.996 24.804-24.996 64.951 0 89.691 25.124 24.804 65.59 24.804 90.65 0 275.274-272.334 275.274-714.205 0-986.73zM682.432 89.172c-25.060-24.804-65.526-24.804-90.65 0-24.996 24.74-24.996 64.951 0 89.691 150.231 148.569 150.231 389.578 0 538.274-24.996 24.74-24.996 64.951 0 89.627 25.124 24.868 65.59 24.868 90.65 0 200.223-198.113 200.223-519.416 0-717.593zM546.521 223.74c-25.060-24.804-65.526-24.804-90.65 0-24.676 24.421-24.74 63.672-0.767 88.604 8.95 8.95 17.005 18.731 23.973 29.279 43.983 64.12 43.983 148.633 0 212.881-7.032 10.484-15.023 20.265-23.973 29.279-23.973 24.804-23.909 64.056 0.767 88.54 25.124 24.74 65.59 24.74 90.65 0 125.107-123.893 125.107-324.755 0-448.583z" />
<glyph unicode="&#xe953;" glyph-name="mic" d="M585.143 162.816v-80.53h73.143c40.375 0 73.143-32.695 73.143-73.143 0-40.375-32.768-73.143-73.143-73.143h-292.571c-40.375 0-73.143 32.768-73.143 73.143 0 40.448 32.768 73.143 73.143 73.143h73.143v80.53c-166.912 33.865-292.571 181.394-292.571 358.327v73.143c0 40.375 32.768 73.143 73.143 73.143s73.143-32.768 73.143-73.143v-73.143c0-121.198 98.231-219.429 219.429-219.429s219.429 98.231 219.429 219.429v73.143c0 40.375 32.768 73.143 73.143 73.143s73.143-32.768 73.143-73.143v-73.143c0-176.933-125.659-324.462-292.571-358.327zM512 374.857c-80.75 0-146.286 65.463-146.286 146.286v292.571c0 80.75 65.536 146.286 146.286 146.286s146.286-65.536 146.286-146.286v-292.571c0-80.823-65.536-146.286-146.286-146.286z" />
<glyph unicode="&#xe954;" glyph-name="min" d="M875.418 88.781c-40.141-39.629-105.062-39.629-145.203 0-39.526 39.117-39.629 101.99-1.229 141.722 14.336 14.336 27.136 30.106 38.4 47.002 70.349 102.707 70.349 238.182 0 340.89-11.264 16.998-24.064 32.666-38.4 47.002-38.4 39.834-38.298 102.707 1.229 141.824 40.141 39.629 105.062 39.629 145.203 0 200.397-198.451 200.397-520.090 0-718.438zM512 38.4c-28.262 0-53.862 11.469-72.499 30.003v0l-174.797 174.797h-162.304c-56.525 0-102.4 45.875-102.4 102.4v204.8c0 56.525 45.875 102.4 102.4 102.4h162.304l174.797 174.797c18.637 18.534 44.237 30.003 72.499 30.003 56.525 0 102.4-45.875 102.4-102.4v-614.4c0-56.525-45.875-102.4-102.4-102.4z" />
<glyph unicode="&#xe955;" glyph-name="minimize" d="M896 64h-256c-35.392 0-64 28.672-64 64s28.608 64 64 64h192c35.328 0 64 28.672 64 64v485.504l-165.504-165.504h37.504c35.328 0 64-28.672 64-64s-28.672-64-64-64h-192c-35.392 0-64 28.672-64 64v192c0 35.328 28.608 64 64 64 35.328 0 64-28.672 64-64v-37.44l165.44 165.44h-485.44c-35.328 0-64-28.672-64-64v-192c0-35.328-28.672-64-64-64-35.392 0-64 28.672-64 64v256c0 70.656 57.28 128 128 128h640c70.656 0 128-57.344 128-128v-640c0-70.656-57.344-128-128-128zM256 384h64c70.656 0 128-57.344 128-128v-192c0-70.656-57.344-128-128-128h-192c-70.72 0-128 57.344-128 128v192c0 70.656 57.28 128 128 128h128zM128 128c0-35.328 28.608-64 64-64h64c35.328 0 64 28.672 64 64v64c0 35.328-28.672 64-64 64h-64c-35.328 0-64-28.672-64-64v-64z" />
<glyph unicode="&#xe956;" glyph-name="mouse" d="M1024 320c0-212.096-171.968-384-384-384-106.176 0-201.344 43.712-270.4 113.6l-1.152-1.152-256 256 1.152 1.152c-69.888 69.056-113.6 164.16-113.6 270.4 0 212.032 171.904 384 384 384 106.176 0 201.344-43.712 270.4-113.6l1.152 1.152 256-256-1.152-1.152c69.888-69.056 113.6-164.224 113.6-270.4zM820.992 500.992l-256 256c-46.336 46.336-110.336 75.008-180.992 75.008-141.376 0-256-114.624-256-256 0-70.656 28.672-134.656 74.944-180.992v0l256-256c46.4-46.336 110.4-75.008 181.056-75.008 141.376 0 256 114.624 256 256 0 70.656-28.672 134.656-75.008 180.992v0zM448 576c0-35.328-28.672-64-64-64-17.664 0-33.664 7.168-45.248 18.752v0l-64 64c-11.584 11.584-18.752 27.584-18.752 45.248 0 35.328 28.672 64 64 64 17.664 0 33.664-7.168 45.248-18.752v0l64-64c11.584-11.584 18.752-27.584 18.752-45.248z" />
<glyph unicode="&#xe957;" glyph-name="move-back" d="M896-64h-192c-70.656 0-128 57.28-128 128v192c0 70.656 57.344 128 128 128v0h192c70.656 0 128-57.344 128-128v-192c0-70.72-57.344-128-128-128zM704 576c0 35.328-28.672 64-64 64h-128v128h192c70.656 0 128-57.344 128-128v-192h-128v128zM320 512v0h-192c-70.656 0-128 57.344-128 128v192c0 70.656 57.344 128 128 128h192c70.656 0 128-57.344 128-128v-192c0-70.656-57.344-128-128-128zM320 320c0-35.392 28.672-64 64-64h128v-128h-192c-70.656 0-128 57.344-128 128v192h128v-128z" />
<glyph unicode="&#xe958;" glyph-name="move-front" d="M896-64h-256c-70.656 0-128 57.344-128 128v64h128c0-35.328 28.672-64 64-64h128c35.328 0 64 28.672 64 64v128c0 35.328-28.672 64-64 64v128h64c70.656 0 128-57.344 128-128v-256c0-70.656-57.344-128-128-128zM640 192h-256c-70.656 0-128 57.28-128 128v256c0 70.656 57.344 128 128 128h256c70.656 0 128-57.344 128-128v-256c0-70.72-57.344-128-128-128zM320 832h-128c-35.328 0-64-28.672-64-64v-128c0-35.328 28.672-64 64-64v-128h-64c-70.656 0-128 57.344-128 128v256c0 70.656 57.344 128 128 128h256c70.656 0 128-57.344 128-128v-64h-128c0 35.328-28.672 64-64 64z" />
<glyph unicode="&#xe959;" glyph-name="move" d="M1024 448c0-8.832-1.792-17.28-5.056-24.896-3.264-7.68-7.936-14.528-13.696-20.352v0l-128-128c-11.584-11.584-27.584-18.752-45.248-18.752-35.328 0-64 28.608-64 64 0 17.664 7.168 33.664 18.752 45.248v0l18.752 18.752h-101.504c-35.328 0-64 28.672-64 64s28.672 64 64 64h101.504l-18.752 18.752c-11.584 11.584-18.752 27.584-18.752 45.248 0 35.328 28.672 64 64 64 17.664 0 33.664-7.168 45.248-18.752v0l128-128c8.384-8.448 13.248-19.648 16-31.616 1.216-4.416 2.752-8.768 2.752-13.632zM640 704c-17.664 0-33.664 7.168-45.248 18.752v0l-18.752 18.752v-101.504c0-35.328-28.672-64-64-64s-64 28.672-64 64v101.504l-18.752-18.752c-11.584-11.584-27.584-18.752-45.248-18.752-35.328 0-64 28.672-64 64 0 17.664 7.168 33.664 18.752 45.248v0l128 128c11.584 11.584 27.584 18.752 45.248 18.752s33.664-7.168 45.248-18.752v0l128-128c11.584-11.584 18.752-27.584 18.752-45.248 0-35.328-28.672-64-64-64zM320 512c35.328 0 64-28.672 64-64s-28.672-64-64-64h-101.504l18.752-18.752c11.584-11.584 18.752-27.584 18.752-45.248 0-35.392-28.672-64-64-64-17.664 0-33.664 7.104-45.248 18.688v0l-128 128c-11.584 11.648-18.752 27.648-18.752 45.312s7.168 33.664 18.752 45.312v0l128 128c11.584 11.52 27.584 18.688 45.248 18.688 35.328 0 64-28.672 64-64 0-17.664-7.168-33.664-18.752-45.248v0l-18.752-18.752h101.504zM512 384c-35.328 0-64 28.672-64 64s28.672 64 64 64 64-28.672 64-64-28.672-64-64-64zM384 192c17.664 0 33.664-7.168 45.248-18.752v0l18.752-18.688v101.44c0 35.328 28.672 64 64 64s64-28.672 64-64v-101.504l18.752 18.688c11.584 11.648 27.584 18.816 45.248 18.816 35.328 0 64-28.672 64-64 0-17.664-7.168-33.664-18.752-45.248v0l-128-128c-3.904-3.904-8.896-6.464-13.696-9.28-9.472-5.504-19.84-9.472-31.552-9.472-8.832 0-17.28 1.792-24.896 5.056s-14.592 7.936-20.352 13.696v0l-128 128c-11.584 11.584-18.752 27.584-18.752 45.248 0 35.328 28.672 64 64 64z" />
<glyph unicode="&#xe95a;" glyph-name="music" horiz-adv-x="957" d="M956.287 856.833c0 70.524-57.237 115.432-127.76 100.164l-447.162-96.715c-70.524-15.267-127.76-84.833-127.76-155.357v-450.292c-32.707 7.474-68.799 7.474-105.211-2.3-102.272-27.405-166.6-118.626-143.794-203.842s124.183-132.040 226.455-104.7c95.245 25.552 151.779 105.913 150.821 184.742l-0.511 476.291 447.162 96.651v-319.082c-32.707 7.474-68.799 7.474-105.211-2.3-102.272-27.405-166.6-118.626-143.794-203.842s124.183-132.040 226.455-104.7c95.245 25.488 151.779 101.889 150.821 181.739l-0.511 579.394c0 0.064 0 16.098 0 24.147z" />
<glyph unicode="&#xe95b;" glyph-name="mute" d="M1000.921 549.849l-101.849-101.849 101.849-101.849c14.257-14.257 23.079-33.95 23.079-55.69 0-43.559-35.289-78.769-78.769-78.769-21.74 0-41.433 8.822-55.769 23.079v0l-101.77 101.849-101.849-101.849c-14.257-14.257-33.95-23.079-55.69-23.079-43.481 0-78.769 35.289-78.769 78.769 0 21.74 8.822 41.354 23.001 55.69v0l101.849 101.849-101.849 101.849c-14.178 14.257-23.001 33.95-23.001 55.69 0 43.481 35.289 78.769 78.769 78.769 21.74 0 41.433-8.822 55.69-23.079v0l101.849-101.849 101.77 101.849c14.336 14.257 34.028 23.079 55.769 23.079 43.481 0 78.769-35.289 78.769-78.769 0-21.74-8.822-41.433-23.079-55.69v0zM393.846 132.923c-21.74 0-41.433 8.822-55.769 23.001v0l-134.459 134.538h-124.849c-43.481 0-78.769 35.289-78.769 78.769v157.538c0 43.481 35.289 78.769 78.769 78.769h124.849l134.459 134.459c14.336 14.257 34.028 23.079 55.769 23.079 43.481 0 78.769-35.289 78.769-78.769v-472.615c0-43.481-35.289-78.769-78.769-78.769z" />
<glyph unicode="&#xe95c;" glyph-name="navigation" d="M1014.187 836.864l0.768-0.341-426.667-853.333-0.768 0.341c-5.547-11.093-13.568-20.224-23.211-27.989-4.352-3.584-8.875-6.656-13.824-9.216-3.243-1.707-6.229-3.243-9.643-4.523-8.96-3.413-18.517-5.803-28.843-5.803-47.104 0-85.333 38.229-85.333 85.333v256c0 47.104-38.229 85.333-85.333 85.333h-256c-47.189 0-85.333 38.229-85.333 85.333 0 10.325 2.389 19.883 5.803 28.928 1.28 3.413 2.816 6.4 4.437 9.643 2.645 4.949 5.717 9.387 9.301 13.739 7.68 9.643 16.811 17.664 27.989 23.211v0l-0.341 0.853 853.333 426.667 0.427-0.939c11.349 5.888 23.893 9.899 37.717 9.899 47.104 0 85.333-38.229 85.333-85.333 0-13.824-4.011-26.283-9.813-37.803z" />
<glyph unicode="&#xe95d;" glyph-name="network" d="M1024 64v0 0 0zM896 0h-256c0-35.328-28.672-64-64-64h-128c-35.328 0-64 28.672-64 64h-256c-35.328 0-64 28.672-64 64s28.672 64 64 64h256c0 35.328 28.672 64 64 64v64h-192c-70.656 0-128 57.344-128 128v448c0 70.656 57.344 128 128 128h512c70.656 0 128-57.344 128-128v-448c0-70.656-57.344-128-128-128h-192v-64c35.328 0 64-28.672 64-64h256c35.328 0 64-28.672 64-64s-28.672-64-64-64zM704 384c35.328 0 64 28.672 64 64v320c0 35.328-28.672 64-64 64h-384c-35.328 0-64-28.672-64-64v-320c0-35.328 28.672-64 64-64h384zM0 64v0 0 0z" />
<glyph unicode="&#xe95e;" glyph-name="open-book" d="M960 128v-2.752c-216.832-13.44-384-92.608-384-189.248v0 0h-128c0 96.64-167.168 175.808-384 189.248v2.752c-35.328 0-64 28.672-64 64v704c0 35.328 28.672 64 64 64 8.96 0 17.408-1.92 25.216-5.248v0.064l422.784-181.184 422.784 181.184c7.744 3.264 16.256 5.184 25.216 5.184 35.328 0 64-28.672 64-64v-704c0-35.328-28.672-64-64-64zM128 247.808c128.128-16.192 240.064-56.064 320-110.848v524.864l-320 137.088v-551.104zM896 798.912l-320-137.088v-524.864c79.936 54.784 191.872 94.656 320 110.848v551.104z" />
<glyph unicode="&#xe95f;" glyph-name="password" d="M938.457 533.543l-85.543-85.543 85.543-85.543c28.514-28.514 46.159-67.899 46.159-111.38 0-86.961-70.577-157.538-157.538-157.538-43.559 0-82.944 17.644-111.458 46.159v0l-46.080 46.159v-92.318c0-86.961-70.577-157.538-157.538-157.538-87.040 0-157.538 70.577-157.538 157.538v92.318l-46.159-46.159c-28.514-28.514-67.899-46.159-111.38-46.159-86.961 0-157.538 70.577-157.538 157.538 0 43.481 17.644 82.865 46.080 111.38v0l85.543 85.543-85.543 85.543c-28.436 28.514-46.080 67.899-46.080 111.38 0 86.961 70.577 157.538 157.538 157.538 43.481 0 82.865-17.644 111.38-46.159v0l46.159-46.080v92.239c0 86.961 70.498 157.538 157.538 157.538 86.961 0 157.538-70.577 157.538-157.538v-92.239l46.080 46.080c28.514 28.514 67.899 46.159 111.458 46.159 86.961 0 157.538-70.577 157.538-157.538 0-43.481-17.644-82.865-46.159-111.38v0z" />
<glyph unicode="&#xe960;" glyph-name="path" d="M832-64c-106.048 0-192 85.952-192 192 0 29.568 7.232 57.28 19.2 82.304l-384.896 384.896c-25.024-11.968-52.736-19.2-82.304-19.2-106.048 0-192 85.952-192 192s85.952 192 192 192c106.048 0 192-85.952 192-192 0-29.568-7.232-57.28-19.2-82.304l384.896-384.896c25.024 11.968 52.736 19.2 82.304 19.2 106.048 0 192-85.952 192-192s-85.952-192-192-192zM192 832c-35.392 0-64-28.672-64-64s28.608-64 64-64c35.392 0 64 28.672 64 64s-28.672 64-64 64zM832 192c-35.328 0-64-28.672-64-64s28.672-64 64-64c35.392 0 64 28.672 64 64s-28.672 64-64 64z" />
<glyph unicode="&#xe961;" glyph-name="pause" d="M768-64c-94.208 0-170.667 76.459-170.667 170.667v682.667c0 94.208 76.459 170.667 170.667 170.667 94.293 0 170.667-76.459 170.667-170.667v-682.667c0-94.208-76.459-170.667-170.667-170.667zM256-64c-94.208 0-170.667 76.459-170.667 170.667v682.667c0 94.208 76.373 170.667 170.667 170.667s170.667-76.459 170.667-170.667v-682.667c0-94.208-76.459-170.667-170.667-170.667z" />
<glyph unicode="&#xe962;" glyph-name="pencil" d="M1024 768c0-17.664-7.168-33.664-18.752-45.248v0l-82.752-82.752-218.496 218.496 82.752 82.752c11.584 11.584 27.584 18.752 45.248 18.752s33.664-7.168 45.248-18.752v0l128-128c11.584-11.584 18.752-27.584 18.752-45.248zM613.504 768l218.496-218.496-594.752-594.752c-11.584-11.584-27.584-18.752-45.248-18.752h-128c-35.328 0-64 28.672-64 64v128c0 17.664 7.168 33.664 18.752 45.248v0l594.752 594.752z" />
<glyph unicode="&#xe963;" glyph-name="percent" d="M804.571 45.714c-121.198 0-219.429 98.231-219.429 219.429s98.231 219.429 219.429 219.429c121.198 0 219.429-98.231 219.429-219.429s-98.231-219.429-219.429-219.429zM804.571 338.286c-40.448 0-73.143-32.768-73.143-73.143s32.695-73.143 73.143-73.143c40.375 0 73.143 32.768 73.143 73.143s-32.768 73.143-73.143 73.143zM721.774 667.721l-292.571-512-1.024 0.512c-12.581-21.943-35.328-37.376-62.464-37.376-40.448 0-73.143 32.768-73.143 73.143 0 13.239 4.462 25.015 10.606 35.694l-0.951 0.585 292.571 512 1.024-0.585c12.581 22.016 35.255 37.449 62.464 37.449 40.375 0 73.143-32.768 73.143-73.143 0-13.239-4.535-25.015-10.679-35.694l1.024-0.585zM219.429 411.429c-121.198 0-219.429 98.231-219.429 219.429s98.231 219.429 219.429 219.429c121.198 0 219.429-98.231 219.429-219.429s-98.231-219.429-219.429-219.429zM219.429 704c-40.448 0-73.143-32.768-73.143-73.143s32.695-73.143 73.143-73.143c40.375 0 73.143 32.768 73.143 73.143s-32.768 73.143-73.143 73.143z" />
<glyph unicode="&#xe964;" glyph-name="pie-extract" d="M708.47 580.058c-35.6 0-64.412 28.813-64.412 64.348v315.594c197.014-28.428 351.514-182.928 379.942-379.942h-315.53zM901.706 386.821c0-248.941-201.88-450.821-450.885-450.821s-450.821 201.88-450.821 450.821c0 249.005 201.816 450.885 450.821 450.885 35.6 0 64.412-28.813 64.412-64.412v-321.997h322.061c35.536-0.064 64.412-28.877 64.412-64.476zM450.821 322.409c-35.536 0-64.412 28.813-64.412 64.348v315.594c-146.944-29.837-257.585-159.75-257.585-315.53 0-177.87 144.191-321.997 321.997-321.997 155.78 0 285.693 110.64 315.53 257.649h-315.53z" />
<glyph unicode="&#xe965;" glyph-name="pie" d="M959.944 384.072h-447.944c-35.324 0-63.992 28.668-63.992 63.992v447.944c0 35.324 28.668 63.992 63.992 63.992 282.717 0 511.936-229.219 511.936-511.936 0-35.324-28.668-63.992-63.992-63.992zM575.992 825.553v-313.497h314.137c-27.069 160.364-153.581 286.428-314.137 313.497zM320.024 780.566l0.704-1.28c-146.798-84.725-225.572-259.040-179.626-430.602 54.905-204.838 265.439-326.359 470.277-271.518 102.451 27.453 183.977 93.812 233.123 178.922v0c17.662 30.652 56.825 41.083 87.413 23.421 30.652-17.662 41.083-56.825 23.421-87.413v0c-65.528-113.458-174.314-201.959-310.873-238.562-273.118-73.143-553.787 88.885-626.994 362.003-60.92 227.428 41.851 459.399 235.427 573.176 1.216 0.768 1.856 2.048 3.072 2.688 30.588 17.662 69.751 7.167 87.413-23.421 17.726-30.588 7.231-69.751-23.357-87.413z" />
<glyph unicode="&#xe966;" glyph-name="pin" d="M1024 192c0-26.432-16-49.024-38.784-58.752v-0.064l-0.256-0.128c0 0-0.064 0-0.128-0.064l-447.616-191.808c-7.808-3.264-16.256-5.184-25.216-5.184s-17.408 1.92-25.216 5.248v0l-447.616 191.808c0 0.064-0.064 0.064-0.128 0.064l-0.192 0.128v0.064c-22.848 9.664-38.848 32.256-38.848 58.688s16 49.024 38.784 58.752v0.064l0.192 0.064c0.064 0 0.128 0 0.128 0l344.896 147.84v-139.264l-157.504-67.456 285.504-122.368 285.504 122.368-157.504 67.52v139.2l344.832-147.776c0 0 0.064 0 0.128 0l0.256-0.064v-0.064c22.784-9.792 38.784-32.384 38.784-58.816zM576 457.088v-201.088c0-17.664-7.168-33.664-18.752-45.312-11.584-11.52-27.584-18.688-45.248-18.688s-33.664 7.168-45.248 18.688c-11.584 11.648-18.752 27.648-18.752 45.312v0 201.088c-110.208 28.48-192 127.808-192 246.912 0 141.376 114.624 256 256 256s256-114.624 256-256c0-119.104-81.792-218.432-192-246.912zM512 832c-70.656 0-128-57.344-128-128 0-70.72 57.344-128 128-128s128 57.28 128 128c0 70.656-57.344 128-128 128z" />
<glyph unicode="&#xe967;" glyph-name="play-all" d="M887.467 140.8h-68.267v-68.267c0-75.435-61.167-136.533-136.533-136.533h-546.133c-75.435 0-136.533 61.099-136.533 136.533v546.133c0 75.366 61.099 136.533 136.533 136.533h68.267v68.267c0 75.366 61.167 136.533 136.533 136.533h546.133c75.366 0 136.533-61.167 136.533-136.533v-546.133c0-75.366-61.167-136.533-136.533-136.533zM136.533 550.4v-409.6c0-37.683 30.515-68.267 68.267-68.267h409.6c37.683 0 68.267 30.583 68.267 68.267v409.6c0 37.683-30.583 68.267-68.267 68.267h-409.6c-37.751 0-68.267-30.583-68.267-68.267zM887.467 755.2c0 37.683-30.583 68.267-68.267 68.267h-409.6c-37.751 0-68.267-30.583-68.267-68.267h341.333c75.366 0 136.533-61.167 136.533-136.533v-341.333c37.683 0 68.267 30.583 68.267 68.267v409.6zM341.333 482.133c10.991 0 21.026-3.209 30.174-7.851l0.273 0.614 136.533-68.267-0.273-0.614c22.391-11.196 38.093-33.724 38.093-60.416s-15.701-49.22-38.093-60.416l0.273-0.614-136.533-68.267-0.273 0.614c-9.148-4.642-19.183-7.851-30.174-7.851-37.683 0-68.267 30.583-68.267 68.267v136.533c0 37.683 30.583 68.267 68.267 68.267z" />
<glyph unicode="&#xe968;" glyph-name="play" d="M896 448c0-53.931-25.515-101.376-64.512-132.693l0.512-0.597-426.667-341.333-0.512 0.512c-29.269-23.296-65.792-37.888-106.155-37.888-94.208 0-170.667 76.459-170.667 170.667v682.667c0 94.208 76.459 170.667 170.667 170.667 40.363 0 76.885-14.592 106.155-37.973l0.512 0.597 426.667-341.333-0.512-0.597c38.997-31.317 64.512-78.763 64.512-132.693z" />
<glyph unicode="&#xe969;" glyph-name="power" d="M849.92 75.947c-186.641-186.641-489.199-186.641-675.84 0-186.573 186.573-186.573 489.199 0 675.772l48.333 48.265c26.624 26.692 69.837 26.692 96.529 0 26.692-26.624 26.692-69.837 0-96.529l-48.333-48.196c-133.325-133.325-133.325-349.457 0-482.714s349.389-133.257 482.714 0c133.325 133.325 133.325 349.457 0 482.714l-48.265 48.265c-26.692 26.692-26.692 69.905 0 96.529 26.692 26.692 69.905 26.692 96.529 0l48.333-48.265c186.573-186.641 186.573-489.199 0-675.84zM512 550.4c-37.751 0-68.267 30.583-68.267 68.267v273.067c0 37.751 30.515 68.267 68.267 68.267 37.683 0 68.267-30.515 68.267-68.267v-273.067c0-37.683-30.583-68.267-68.267-68.267z" />
<glyph unicode="&#xe96a;" glyph-name="quote" d="M1024 192c0-17.664-7.168-33.664-18.752-45.248v0l-128-128c-11.584-11.584-27.584-18.752-45.248-18.752-35.328 0-64 28.672-64 64 0 17.664 7.168 33.664 18.752 45.248v0l82.752 82.752-82.752 82.752c-11.584 11.584-18.752 27.584-18.752 45.248 0 35.328 28.672 64 64 64 17.664 0 33.664-7.168 45.312-18.752v0l128-128c11.52-11.584 18.688-27.584 18.688-45.248zM768 192c0-17.664-7.168-33.664-18.752-45.248v0l-128-128c-11.584-11.584-27.584-18.752-45.248-18.752-35.328 0-64 28.672-64 64 0 17.664 7.168 33.664 18.752 45.248v0l82.752 82.752-82.752 82.752c-11.584 11.584-18.752 27.584-18.752 45.248 0 35.328 28.672 64 64 64 17.664 0 33.664-7.168 45.248-18.752v0l128-128c11.584-11.584 18.752-27.584 18.752-45.248zM448 512c-17.664 0-33.664 7.168-45.248 18.752v0l-128 128c-11.584 11.584-18.752 27.584-18.752 45.248 0 17.6 7.168 33.6 18.752 45.248v0l128 128c11.584 11.584 27.584 18.752 45.248 18.752 35.328 0 64-28.608 64-64 0-17.664-7.168-33.664-18.752-45.248v0l-82.752-82.752 82.752-82.752c11.584-11.584 18.752-27.584 18.752-45.248 0-35.328-28.672-64-64-64zM237.248 786.752l-82.752-82.752 82.752-82.752c11.584-11.584 18.752-27.584 18.752-45.248 0-35.328-28.672-64-64-64-17.664 0-33.664 7.168-45.248 18.752v0l-128 128c-11.584 11.584-18.752 27.584-18.752 45.248 0 17.6 7.168 33.6 18.752 45.248v0l128 128c11.584 11.584 27.584 18.752 45.248 18.752 35.328 0 64-28.608 64-64 0-17.664-7.168-33.664-18.752-45.248v0z" />
<glyph unicode="&#xe96b;" glyph-name="radiation" d="M765.824 3.776l-64.128 112.256c115.584 66.24 194.304 189.312 194.304 331.968h128c0-190.4-104.064-355.968-258.176-444.224zM512 832c-69.376 0-133.504-19.84-189.696-51.968l-64.192 112.192c74.88 42.88 161.408 67.776 253.888 67.776s178.944-24.896 253.824-67.776l-64.128-112.256c-56.192 32.192-120.32 52.032-189.696 52.032zM258.112 3.776c-154.048 88.256-258.112 253.824-258.112 444.224h128c0-142.656 78.72-265.728 194.304-332.032l-64.192-112.192zM512 640c-106.048 0-192-85.952-192-192s85.952-192 192-192 192 85.952 192 192-85.952 192-192 192zM512 384c-35.328 0-64 28.672-64 64s28.672 64 64 64 64-28.672 64-64-28.672-64-64-64zM960 512h-337.728l197.056 344.832c-33.984 25.6-70.976 47.424-110.848 64l-196.48-343.808-196.48 343.744c-39.872-16.576-76.864-38.4-110.848-64l197.056-344.768h-337.728c-35.328 0-64-28.672-64-64s28.672-64 64-64h337.728l-197.056-344.832c33.984-25.6 70.976-47.36 110.848-64l196.48 343.808 196.416-343.808c39.872 16.64 76.864 38.4 110.848 64l-196.992 344.832h337.728c35.328 0 64 28.672 64 64s-28.672 64-64 64zM512 384c-35.328 0-64 28.672-64 64s28.672 64 64 64 64-28.672 64-64-28.672-64-64-64z" />
<glyph unicode="&#xe96c;" glyph-name="radio" d="M512.064 577.28c70.912 0 128.384-57.792 128.384-129.024s-57.408-129.024-128.384-129.024c-70.848 0-128.384 57.792-128.384 129.024s57.472 129.024 128.384 129.024zM648.256 311.36c75.264 75.648 75.264 198.144 0 273.664-25.088 25.216-25.088 66.048 0 91.2 25.152 25.216 65.728 25.216 90.816 0 125.312-125.952 125.312-330.112 0-456.064-25.088-25.216-65.664-25.216-90.816 0-25.088 25.152-25.088 66.048 0 91.2zM939.776 733.76c1.216-1.856 2.24-3.776 3.392-5.632 17.28-26.752 32-54.72 43.84-83.648 0.896-2.24 1.536-4.48 2.432-6.72 11.52-29.184 20.416-59.072 26.432-89.536 0.32-1.664 0.448-3.456 0.768-5.12 11.712-62.656 11.712-127.104 0-189.824-0.32-1.664-0.448-3.456-0.768-5.12-5.952-30.464-14.912-60.288-26.432-89.536-0.896-2.112-1.472-4.352-2.432-6.656-11.84-28.928-26.56-56.896-43.84-83.776-1.28-1.728-2.176-3.84-3.392-5.632-18.56-28.032-39.936-54.656-64.576-79.36v0c-25.088-25.152-65.664-25.152-90.816 0-25.088 25.28-25.088 66.112 0 91.328 150.528 151.040 150.528 396.16 0 547.328-25.088 25.216-25.088 65.984 0 91.2 25.152 25.216 65.728 25.216 90.816 0v0c24.64-24.64 46.016-51.328 64.576-79.296zM511.68 577.28c-70.656 0-128-57.792-128-129.024s57.344-129.024 128-129.024c70.72 0 128 57.792 128 129.024s-57.28 129.024-128 129.024zM375.936 311.36c-74.944 75.648-74.944 198.144 0 273.664 25.088 25.216 25.088 66.048 0 91.2-25.024 25.152-65.408 25.216-90.496 0-124.992-125.952-124.992-330.112 0-456.064 25.088-25.216 65.472-25.216 90.496 0s24.96 66.048 0 91.2zM85.312 733.76c-1.216-1.856-2.24-3.776-3.392-5.696-17.216-26.752-31.936-54.72-43.712-83.648-0.896-2.176-1.536-4.416-2.368-6.656-11.456-29.12-20.416-59.072-26.368-89.536-0.32-1.664-0.448-3.392-0.768-5.12-11.648-62.656-11.648-127.104 0-189.824 0.32-1.664 0.448-3.456 0.768-5.12 5.952-30.464 14.912-60.288 26.368-89.472 0.832-2.24 1.408-4.416 2.432-6.656 11.712-28.928 26.432-56.96 43.648-83.712 1.216-1.792 2.176-3.904 3.392-5.632 18.496-28.032 39.808-54.656 64.32-79.36v0c25.088-25.28 65.536-25.28 90.56 0 25.024 25.216 25.024 65.984 0 91.264-149.952 151.104-149.952 396.16 0 547.328 25.024 25.216 25.024 65.984 0 91.2s-65.472 25.216-90.56 0v0c-24.512-24.704-45.824-51.392-64.32-79.36z" />
<glyph unicode="&#xe96d;" glyph-name="rec" d="M512-64c-282.795 0-512 229.291-512 512s229.205 512 512 512c282.709 0 512-229.291 512-512s-229.291-512-512-512z" />
<glyph unicode="&#xe96e;" glyph-name="reload" horiz-adv-x="896" d="M893.824 341.312c-21.504-227.392-212.8-405.312-445.824-405.312-247.424 0-448 200.576-448 448 0 202.88 135.040 373.952 320 429.056v50.944c0 52.992 43.008 96 96 96 4.928 0 9.152-2.112 13.888-2.752l264.448-180.736c5.824-12.416 9.664-25.856 9.664-40.512 0-14.592-3.84-28.032-9.6-40.512l-264.512-180.672c-4.736-0.704-8.96-2.816-13.888-2.816-51.904 0-93.568 41.344-95.36 92.864-76.544-44.288-128.64-126.080-128.64-220.864 0-141.376 114.624-256 256-256s256 114.624 256 256c0 0 21.248 64 96 64s96-64 96-64c0-22.016-2.496-45.376-2.176-42.688z" />
<glyph unicode="&#xe96f;" glyph-name="repeat-infinify" d="M1024 448c0-88.32-44.736-166.272-112.896-212.288-40.832-27.584-90.048-43.712-143.104-43.712h-320v-128c0-35.328-28.672-64-64-64-17.664 0-33.664 7.168-45.248 18.752v0l-192 192c-11.584 11.584-18.752 27.584-18.752 45.248s7.168 33.664 18.752 45.248v0l192 192c11.584 11.584 27.584 18.752 45.248 18.752 35.328 0 64-28.672 64-64v-128h320c70.656 0 128 57.344 128 128 0 35.328 28.672 64 64 64s64-28.672 64-64v0 0zM877.312 594.752v0l-192-192c-11.648-11.584-27.648-18.752-45.312-18.752-35.328 0-64 28.672-64 64v128h-320c-70.656 0-128-57.344-128-128 0-35.328-28.672-64-64-64s-64 28.672-64 64v0 0c0 88.384 44.8 166.272 112.896 212.288 40.832 27.648 90.048 43.712 143.104 43.712h320v128c0 35.328 28.672 64 64 64 17.664 0 33.664-7.168 45.248-18.752v0l192-192c11.584-11.584 18.752-27.584 18.752-45.248s-7.168-33.664-18.688-45.248z" />
<glyph unicode="&#xe970;" glyph-name="repeat-once" d="M768 96h-512c-141.376 0-256 114.624-256 256s114.624 256 256 256v0 128c0 35.328 28.672 64 64 64 17.664 0 33.664-7.168 45.248-18.752v0l192-192c11.584-11.584 18.752-27.584 18.752-45.248s-7.168-33.664-18.752-45.248v0l-192-192c-11.584-11.584-27.584-18.752-45.248-18.752-35.328 0-64 28.672-64 64v128c-70.656 0-128-57.344-128-128s57.344-128 128-128h512c70.656 0 128 57.344 128 128s-57.344 128-128 128c-35.328 0-64 28.672-64 64 0 35.392 28.672 64 64 64 141.376 0 256-114.624 256-256s-114.624-256-256-256z" />
<glyph unicode="&#xe971;" glyph-name="reply-all" d="M1024 72.533h-68.267c0 180.019-164.113 286.788-341.333 341.333v-68.267c0-37.683-30.583-68.267-68.267-68.267-18.842 0-35.908 7.646-48.333 20.002v0l-204.8 204.8c-12.288 12.356-19.934 29.423-19.934 48.265s7.646 35.908 19.934 48.265v0l204.8 204.8c6.212 6.212 13.585 11.196 21.709 14.609s17.203 5.393 26.624 5.393c37.683 0 68.267-30.583 68.267-68.267v-68.267c235.383-60.621 409.6-360.038 409.6-614.4zM224.734 598.665c-12.288-12.356-19.934-29.423-19.934-48.265s7.646-35.908 19.934-48.265v0l116.599-116.599v-39.936c0-37.683-30.583-68.267-68.267-68.267-18.842 0-35.908 7.646-48.333 20.002v0l-204.8 204.8c-12.288 12.356-19.934 29.423-19.934 48.265s7.646 35.908 19.934 48.265v0l204.8 204.8c6.212 6.212 13.517 11.196 21.709 14.609 8.192 3.482 17.203 5.393 26.624 5.393 37.683 0 68.267-30.583 68.267-68.267v-39.936l-116.599-116.599z" />
<glyph unicode="&#xe972;" glyph-name="reply" d="M1024-64h-93.091c0 245.388-223.791 391.075-465.455 465.455v-93.091c0-51.386-41.705-93.091-93.091-93.091-25.693 0-48.966 10.426-65.815 27.276v0l-279.273 279.273c-16.849 16.849-27.276 40.122-27.276 65.815s10.426 48.966 27.276 65.815v0l279.273 279.273c8.471 8.471 18.432 15.267 29.603 19.921 11.078 4.748 23.366 7.354 36.212 7.354 51.386 0 93.091-41.612 93.091-93.091v-93.091c321.071-82.665 558.545-490.961 558.545-837.818z" />
<glyph unicode="&#xe973;" glyph-name="rewind" d="M0 448c0-40.448 19.136-76.032 48.384-99.52l-0.384-0.448 320-256 0.384 0.384c21.952-17.472 49.344-28.416 79.616-28.416 70.656 0 128 57.344 128 128v92.096l240-192 0.384 0.384c21.952-17.536 49.344-28.48 79.616-28.48 70.656 0 128 57.344 128 128v512c0 70.656-57.344 128-128 128-30.272 0-57.664-10.944-79.616-28.48l-0.384 0.448-240-192v92.032c0 70.656-57.344 128-128 128-30.272 0-57.664-10.944-79.616-28.48l-0.384 0.448-320-256 0.384-0.448c-29.248-23.488-48.384-59.072-48.384-99.52z" />
<glyph unicode="&#xe974;" glyph-name="rocket" d="M1023.744-64l-127.968 383.904-44.981 29.945-19.003-19.003v181.011c0 0.832-0.256 1.6-0.192 2.367-0.192 4.031-0.448 8.062-0.704 12.029 0.32 2.687 0.896 5.247 0.896 7.998 0 195.855-270.78 399.26-295.35 417.624s-49.14-0.064-49.14-0.064-295.35-221.705-295.35-417.56c0-2.751 0.576-5.311 0.832-8.062-0.256-4.095-0.512-8.254-0.64-12.413 0-0.576-0.192-1.28-0.192-1.92v-1.92c0 0 0-0.064 0-0.128s0-0.064 0-0.064v-178.899l-19.003 19.067-44.981-30.008-127.968-383.904 255.936 127.968v65.712c18.171-24.378 39.734-46.004 63.984-64.24v-33.464l191.952-95.976 191.952 95.976v33.528c24.314 18.235 45.813 39.734 63.984 64.24v-65.712l255.936-128.032zM511.872 447.872c-70.702 0-127.968 57.33-127.968 127.968s57.266 127.968 127.968 127.968c70.638 0 127.968-57.33 127.968-127.968s-57.33-127.968-127.968-127.968z" />
<glyph unicode="&#xe975;" glyph-name="rotate" horiz-adv-x="1015" d="M1015.381 870.4v0-241.323c0-21.845-8.363-43.691-25.003-60.416-16.64-16.64-38.485-25.003-60.331-25.003v0h-241.323c-21.845 0-43.691 8.363-60.331 25.003-33.28 33.365-33.28 87.381 0 120.661 16.64 16.725 38.485 25.003 60.331 25.003v0h30.037c-58.197 46.251-130.901 75.008-211.029 75.008-94.293 0-179.627-38.229-241.408-100.011v0c-33.365-33.28-87.296-33.28-120.661 0-33.365 33.365-33.365 87.381 0 120.747v0c92.672 92.672 220.672 149.931 362.069 149.931 129.707 0 246.784-49.749 337.067-129.365v39.765c0 21.845 8.363 43.691 25.003 60.331 33.365 33.365 87.296 33.365 120.661 0 16.64-16.725 24.917-38.485 24.917-60.331zM387.072 206.592c-16.725-16.555-38.571-25.003-60.416-25.003v0h-30.037c58.283-46.165 130.987-74.923 211.115-74.923 94.208 0 179.541 38.229 241.408 99.925v0c33.28 33.365 87.296 33.365 120.661 0 33.365-33.28 33.365-87.296 0-120.661v0c-92.757-92.672-220.757-149.931-362.069-149.931-129.792 0-246.869 49.835-337.067 129.365v-39.68c0-21.845-8.363-43.691-25.003-60.416-33.365-33.28-87.381-33.28-120.661 0-16.64 16.64-25.003 38.485-25.003 60.331v0 241.408c0 21.845 8.363 43.691 25.003 60.331s38.485 25.003 60.331 25.003v0h241.323c21.845 0 43.691-8.363 60.416-25.003 33.28-33.365 33.28-87.381 0-120.747z" />
<glyph unicode="&#xe976;" glyph-name="route" d="M1024 704c0-17.664-7.168-33.664-18.752-45.248v0l-128-128c-11.584-11.584-27.584-18.752-45.248-18.752-35.392 0-64 28.672-64 64 0 17.664 7.168 33.664 18.688 45.248v0l18.752 18.752h-37.44v-3.2c-10.368 2.048-21.056 3.2-32 3.2-88.384 0-160-71.616-160-160 0-10.944 1.152-21.632 3.2-32h-3.2v-384c0-35.328-28.672-64-64-64-35.392 0-64 28.672-64 64v192h-3.264c2.112 10.368 3.264 21.056 3.264 32v0c0 88.384-71.68 160-160 160-10.944 0-21.632-1.152-32-3.2v3.2h-37.504l18.752-18.752c11.584-11.584 18.752-27.584 18.752-45.248 0-35.328-28.672-64-64-64-17.664 0-33.664 7.168-45.312 18.752v0l-128 128c-11.52 11.584-18.688 27.584-18.688 45.248s7.168 33.664 18.688 45.312v0l128 128c11.648 11.52 27.648 18.688 45.312 18.688 35.328 0 64-28.672 64-64 0-17.728-7.168-33.664-18.752-45.312v0l-18.752-18.688h101.504v-3.2c48.704-5.44 93.888-21.888 132.16-48.576 19.84 127.168 122.688 226.048 251.84 240.576v3.2h101.44l-18.752 18.752c-11.52 11.584-18.688 27.584-18.688 45.248 0 35.392 28.608 64 64 64 17.664 0 33.664-7.168 45.248-18.752v0l128-128c11.584-11.584 18.752-27.584 18.752-45.248z" />
<glyph unicode="&#xe977;" glyph-name="ruby" d="M1024 640c0-14.784-5.888-27.776-14.336-38.656l0.832-0.64-448-576-0.832 0.64c-11.712-15.040-29.12-25.344-49.664-25.344s-38.016 10.304-49.728 25.344l-0.832-0.64-448 576 0.832 0.64c-8.448 10.88-14.272 23.872-14.272 38.656 0 17.664 7.168 33.664 18.752 45.248v0l192 192c11.584 11.584 27.584 18.752 45.248 18.752h512c17.664 0 33.664-7.168 45.248-18.752v0l192-192c11.584-11.584 18.752-27.584 18.752-45.248zM741.504 768h-459.008l-133.312-133.312 362.816-466.432 362.752 466.432-133.248 133.312z" />
<glyph unicode="&#xe978;" glyph-name="school" d="M1024 576c0-23.744-13.504-43.648-32.768-54.656l0.512-0.896-95.744-54.72v-209.728c0-141.376-171.968-256-384-256-212.096 0-384 114.624-384 256v209.728l-95.744 54.72 0.512 0.896c-19.264 11.008-32.768 30.912-32.768 54.656s13.504 43.648 32.768 54.656l-0.512 0.896 448 256 0.512-0.896c9.344 5.376 19.648 9.344 31.232 9.344s21.888-3.968 31.232-9.344l0.512 0.896 448-256-0.512-0.896c19.264-11.008 32.768-30.912 32.768-54.656zM256 256c0-70.656 114.624-128 256-128s256 57.344 256 128v136.576l-224.256-128.192-0.512 0.96c-9.344-5.44-19.648-9.344-31.232-9.344s-21.888 3.904-31.232 9.344l-0.512-0.96-224.256 128.192v-136.576zM512 758.272l-256-146.304v-72l256-146.304 256 146.304v72l-256 146.304z" />
<glyph unicode="&#xe979;" glyph-name="search" d="M984.096 168.876l-144.746 144.678c-0.477 0.477-1.023 0.75-1.501 1.228 31.037 60.641 48.908 129.057 48.908 201.84 0 244.881-198.497 443.379-443.379 443.379s-443.379-198.497-443.379-443.379c0-244.813 198.497-443.379 443.379-443.379 72.714 0 141.199 17.872 201.771 48.976 0.477-0.477 0.75-1.023 1.228-1.501l144.678-144.746c53.274-53.205 139.698-53.205 192.972 0s53.274 139.698 0.068 192.904zM443.379 209.667c-169.507 0-306.954 137.447-306.954 306.954 0 169.575 137.447 306.954 306.954 306.954s306.954-137.379 306.954-306.954c0-169.507-137.447-306.954-306.954-306.954z" />
<glyph unicode="&#xe97a;" glyph-name="select" d="M896-64h-768c-70.656 0-128 57.344-128 128v768c0 70.656 57.344 128 128 128h768c70.656 0 128-57.344 128-128v-768c0-70.656-57.344-128-128-128zM896 768c0 35.328-28.672 64-64 64h-640c-35.392 0-64-28.672-64-64v-640c0-35.328 28.608-64 64-64h640c35.328 0 64 28.672 64 64v640zM685.248 274.752l-128-128c-11.584-11.584-27.584-18.752-45.248-18.752s-33.664 7.168-45.312 18.752v0l-128 128c-11.52 11.584-18.688 27.584-18.688 45.248 0 35.328 28.672 64 64 64 17.664 0 33.664-7.168 45.248-18.752v0l82.752-82.752 82.688 82.752c11.648 11.584 27.648 18.752 45.312 18.752 35.328 0 64-28.672 64-64 0-17.664-7.168-33.664-18.752-45.248v0zM640 512c-17.664 0-33.664 7.168-45.312 18.752v0l-82.688 82.752-82.752-82.752c-11.584-11.584-27.584-18.752-45.248-18.752-35.328 0-64 28.608-64 64 0 17.664 7.168 33.664 18.688 45.248v0l128 128c11.648 11.584 27.648 18.752 45.312 18.752s33.664-7.168 45.248-18.752v0l128-128c11.584-11.584 18.752-27.584 18.752-45.248 0-35.392-28.672-64-64-64z" />
<glyph unicode="&#xe97b;" glyph-name="sending" horiz-adv-x="768" d="M640-64h-512c-70.72 0-128 57.344-128 128v448c0 11.008 3.52 20.864 8.384 29.952 0.704 1.216 1.472 2.24 2.304 3.392 5.312 8.448 12.288 15.424 20.928 20.608l-0.576 0.896 169.728 101.824 55.232-55.232v-37.44c0-7.552 0.96-14.848 2.24-22.144l-130.24-78.080v-27.776h64c-0.96 0-1.728-0.512-2.688-0.576l194.688-116.8 194.688 116.8c-0.96 0.064-1.728 0.576-2.688 0.576h64v27.776l-130.24 78.080c1.28 7.296 2.24 14.592 2.24 22.144v37.44l55.168 55.232 169.728-101.824-0.576-0.96c8.64-5.184 15.616-12.096 20.928-20.608 0.768-1.216 1.6-2.176 2.304-3.392 4.928-9.024 8.448-18.88 8.448-29.888v-448c0-70.656-57.344-128-128-128zM640 334.976l-223.104-133.824-0.576 0.96c-9.6-5.888-20.288-10.112-32.32-10.112-12.096 0-22.72 4.224-32.384 10.048l-0.576-0.96-223.040 133.888v-206.976c0-35.328 28.608-64 64-64h384c35.328 0 64 28.672 64 64v206.976zM512 704c-17.664 0-33.664 7.168-45.312 18.752v0l-18.688 18.752v-165.504c0-35.328-28.672-64-64-64s-64 28.672-64 64v165.504l-18.752-18.752c-11.584-11.584-27.584-18.752-45.248-18.752-35.328 0-64 28.672-64 64 0 17.664 7.168 33.664 18.688 45.248v0l128 128c11.648 11.584 27.648 18.752 45.312 18.752s33.664-7.168 45.248-18.752v0l128-128c11.584-11.584 18.752-27.584 18.752-45.248 0-35.328-28.672-64-64-64z" />
</font>
</defs>
</svg>
